<svg width="20" height="20" viewBox="0 0 20 20" fill="none" xmlns="http://www.w3.org/2000/svg">
<g id="ai_barain_icon">
<path id="Vector" d="M6.13 2.79295C6.81198 2.27647 7.64452 1.9979 8.5 1.99995C8.79545 1.99333 9.08779 2.06133 9.34999 2.19767C9.61218 2.33401 9.83575 2.53428 10 2.77995C10.1643 2.53428 10.3878 2.33401 10.65 2.19767C10.9122 2.06133 11.2046 1.99333 11.5 1.99995C12.3555 1.9979 13.188 2.27647 13.87 2.79295C14.395 3.20095 14.8 3.76595 14.943 4.44895C15.271 4.47395 15.571 4.60995 15.823 4.81495C16.205 5.12495 16.483 5.58995 16.658 6.08195C16.932 6.84695 17.006 7.82195 16.722 8.65195C16.794 8.68595 16.865 8.72595 16.934 8.77195C17.209 8.95495 17.418 9.21695 17.572 9.52595C17.875 10.131 18 10.975 18 12C18 13.141 17.565 13.907 17.013 14.38C16.7078 14.6417 16.3475 14.8314 15.959 14.935C15.859 15.493 15.579 16.139 15.14 16.687C14.57 17.402 13.686 18 12.5 18C11.56 18 10.812 17.48 10.326 16.97C10.2098 16.8482 10.101 16.7196 10 16.585C9.89906 16.7196 9.7902 16.8482 9.674 16.97C9.188 17.48 8.441 18 7.5 18C6.314 18 5.431 17.402 4.86 16.687C4.44976 16.1775 4.16878 15.5764 4.041 14.935C3.65248 14.8314 3.29225 14.6417 2.987 14.38C2.435 13.907 2 13.14 2 12C2 10.975 2.126 10.13 2.428 9.52595C2.57113 9.22292 2.79109 8.96263 3.066 8.77095C3.13354 8.72624 3.20441 8.68679 3.278 8.65295C2.994 7.82095 3.068 6.84695 3.342 6.08195C3.517 5.58995 3.795 5.12495 4.177 4.81495C4.429 4.60995 4.729 4.47495 5.057 4.44895C5.201 3.76595 5.605 3.20095 6.13 2.79295ZM9.5 4.49995V4.48995L9.498 4.43995C9.48328 4.17926 9.43142 3.922 9.344 3.67595C9.28176 3.49021 9.17579 3.32216 9.035 3.18595C8.8873 3.05733 8.69564 2.9907 8.5 2.99995C7.86694 2.99778 7.25044 3.20211 6.744 3.58195C6.28 3.94295 6 4.43195 6 4.99995C5.99994 5.07914 5.98107 5.15717 5.94496 5.22764C5.90884 5.29811 5.8565 5.35899 5.79225 5.40527C5.728 5.45155 5.65368 5.48192 5.5754 5.49386C5.49712 5.5058 5.41713 5.49898 5.342 5.47395C5.154 5.41195 4.986 5.44695 4.807 5.59095C4.611 5.75095 4.42 6.03495 4.283 6.41795C4.004 7.19995 4.033 8.14695 4.416 8.72295C4.4707 8.80498 4.49992 8.90136 4.5 8.99995H5.25C5.84674 8.99995 6.41903 9.23701 6.84099 9.65896C7.26295 10.0809 7.5 10.6532 7.5 11.25V11.585C7.83361 11.7029 8.11478 11.935 8.29382 12.2402C8.47285 12.5454 8.53823 12.9041 8.4784 13.2528C8.41856 13.6016 8.23736 13.9179 7.96683 14.146C7.6963 14.3741 7.35384 14.4992 7 14.4992C6.64616 14.4992 6.3037 14.3741 6.03317 14.146C5.76264 13.9179 5.58144 13.6016 5.5216 13.2528C5.46177 12.9041 5.52715 12.5454 5.70618 12.2402C5.88522 11.935 6.16639 11.7029 6.5 11.585V11.25C6.5 10.56 5.94 9.99995 5.25 9.99995H3.5C3.44022 9.99986 3.38095 9.98902 3.325 9.96795L3.322 9.97395C3.124 10.369 3 11.025 3 12C3 12.859 3.315 13.343 3.638 13.62C3.985 13.918 4.37 14 4.5 14C4.63261 14 4.75979 14.0526 4.85355 14.1464C4.94732 14.2402 5 14.3673 5 14.5C5 14.868 5.2 15.511 5.64 16.063C6.069 16.598 6.686 17 7.5 17C8.06 17 8.562 16.687 8.95 16.28C9.141 16.08 9.29 15.873 9.387 15.703C9.43116 15.6276 9.46895 15.5486 9.5 15.467V7.49995H8.415C8.29705 7.83356 8.06497 8.11473 7.75976 8.29377C7.45455 8.47281 7.09588 8.53819 6.74713 8.47835C6.39839 8.41852 6.08202 8.23732 5.85395 7.96678C5.62588 7.69625 5.50079 7.3538 5.50079 6.99995C5.50079 6.64611 5.62588 6.30366 5.85395 6.03312C6.08202 5.76259 6.39839 5.58139 6.74713 5.52156C7.09588 5.46172 7.45455 5.5271 7.75976 5.70614C8.06497 5.88518 8.29705 6.16635 8.415 6.49995H9.5V4.49995ZM10.5 14.499V15.466C10.5311 15.5476 10.5689 15.6266 10.613 15.702C10.711 15.872 10.859 16.079 11.049 16.279C11.438 16.686 11.941 16.999 12.5 16.999C13.314 16.999 13.931 16.597 14.36 16.062C14.8 15.51 15 14.867 15 14.499C15 14.3663 15.0527 14.2392 15.1464 14.1454C15.2402 14.0516 15.3674 13.999 15.5 13.999C15.63 13.999 16.015 13.917 16.362 13.619C16.685 13.342 17 12.858 17 11.999C17 11.024 16.875 10.369 16.678 9.97295C16.6121 9.8255 16.5087 9.69791 16.378 9.60295C16.2654 9.53098 16.1335 9.49505 16 9.49995C15.9096 9.49991 15.8208 9.47533 15.7432 9.42884C15.6657 9.38235 15.6021 9.31569 15.5595 9.23595C15.5168 9.15622 15.4965 9.0664 15.5008 8.97606C15.5052 8.88572 15.5339 8.79825 15.584 8.72295C15.968 8.14695 15.996 7.19995 15.717 6.41795C15.58 6.03495 15.389 5.74995 15.193 5.59095C15.014 5.44695 14.846 5.41095 14.658 5.47395C14.5829 5.49898 14.5029 5.5058 14.4246 5.49386C14.3463 5.48192 14.272 5.45155 14.2078 5.40527C14.1435 5.35899 14.0912 5.29811 14.055 5.22764C14.0189 5.15717 14.0001 5.07914 14 4.99995C14 4.43195 13.72 3.94295 13.255 3.58195C12.7488 3.20232 12.1327 2.998 11.5 2.99995C11.3044 2.9907 11.1127 3.05733 10.965 3.18595C10.8238 3.322 10.7175 3.49008 10.655 3.67595C10.5598 3.93716 10.5075 4.21204 10.5 4.48995V13.5H11.25C11.94 13.5 12.5 12.94 12.5 12.25V10.415C12.1664 10.297 11.8852 10.0649 11.7062 9.75971C11.5271 9.45451 11.4618 9.09583 11.5216 8.74709C11.5814 8.39834 11.7626 8.08197 12.0332 7.8539C12.3037 7.62583 12.6462 7.50074 13 7.50074C13.3538 7.50074 13.6963 7.62583 13.9668 7.8539C14.2374 8.08197 14.4186 8.39834 14.4784 8.74709C14.5382 9.09583 14.4729 9.45451 14.2938 9.75971C14.1148 10.0649 13.8336 10.297 13.5 10.415V12.25C13.5 12.8467 13.2629 13.419 12.841 13.8409C12.419 14.2629 11.8467 14.5 11.25 14.5H10.5V14.499ZM6.5 6.99995C6.5 7.13256 6.55268 7.25974 6.64645 7.35351C6.74021 7.44727 6.86739 7.49995 7 7.49995C7.13261 7.49995 7.25979 7.44727 7.35355 7.35351C7.44732 7.25974 7.5 7.13256 7.5 6.99995C7.5 6.86734 7.44732 6.74017 7.35355 6.6464C7.25979 6.55263 7.13261 6.49995 7 6.49995C6.86739 6.49995 6.74021 6.55263 6.64645 6.6464C6.55268 6.74017 6.5 6.86734 6.5 6.99995ZM13 9.49995C13.1326 9.49995 13.2598 9.44728 13.3536 9.35351C13.4473 9.25974 13.5 9.13256 13.5 8.99995C13.5 8.86734 13.4473 8.74017 13.3536 8.6464C13.2598 8.55263 13.1326 8.49995 13 8.49995C12.8674 8.49995 12.7402 8.55263 12.6464 8.6464C12.5527 8.74017 12.5 8.86734 12.5 8.99995C12.5 9.13256 12.5527 9.25974 12.6464 9.35351C12.7402 9.44728 12.8674 9.49995 13 9.49995ZM7 12.5C6.86739 12.5 6.74021 12.5526 6.64645 12.6464C6.55268 12.7402 6.5 12.8673 6.5 13C6.5 13.1326 6.55268 13.2597 6.64645 13.3535C6.74021 13.4473 6.86739 13.5 7 13.5C7.13261 13.5 7.25979 13.4473 7.35355 13.3535C7.44732 13.2597 7.5 13.1326 7.5 13C7.5 12.8673 7.44732 12.7402 7.35355 12.6464C7.25979 12.5526 7.13261 12.5 7 12.5Z" fill="#9285EE"/>
</g>
</svg>
