<svg width="24" height="24" viewBox="0 0 24 24" fill="none" xmlns="http://www.w3.org/2000/svg">
<path d="M5.22368 18.3964C5.22368 18.795 5.52735 19.1171 5.90323 19.1171H18.0925C18.4684 19.1171 18.772 18.795 18.772 18.3964V13.1486C18.772 9.18018 15.7396 5.96396 11.9979 5.96396C8.25614 5.96396 5.22368 9.18018 5.22368 13.1486V18.3964ZM6.75265 13.1486C6.75265 10.0766 9.10132 7.58559 11.9979 7.58559C14.8944 7.58559 17.2431 10.0766 17.2431 13.1486V17.4955H9.70441V13.6441C9.70441 13.5203 9.60885 13.4189 9.49206 13.4189H8.55769C8.44089 13.4189 8.34533 13.5203 8.34533 13.6441V17.4955H6.75265V13.1486ZM5.73122 7.46171L6.57215 6.56982C6.63798 6.5 6.63798 6.38514 6.57215 6.31532L5.13025 4.78604C5.09832 4.7525 5.0552 4.73369 5.01027 4.73369C4.96533 4.73369 4.92221 4.7525 4.89028 4.78604L4.04935 5.67793C4.01774 5.71179 4 5.75752 4 5.80518C4 5.85284 4.01774 5.89857 4.04935 5.93243L5.49125 7.46171C5.55709 7.53153 5.66326 7.53153 5.73122 7.46171ZM19.9506 5.67793L19.1097 4.78604C19.0778 4.7525 19.0346 4.73369 18.9897 4.73369C18.9448 4.73369 18.9017 4.7525 18.8697 4.78604L17.4278 6.31532C17.3962 6.34918 17.3785 6.39491 17.3785 6.44257C17.3785 6.49022 17.3962 6.53596 17.4278 6.56982L18.2688 7.46171C18.3346 7.53153 18.4429 7.53153 18.5087 7.46171L19.9506 5.93243C20.0165 5.86036 20.0165 5.74775 19.9506 5.67793ZM18.7933 20.5586H5.20245C4.82658 20.5586 4.52291 20.8806 4.52291 21.2793V21.8198C4.52291 21.9189 4.59936 22 4.69279 22H19.3029C19.3964 22 19.4728 21.9189 19.4728 21.8198V21.2793C19.4728 20.8806 19.1692 20.5586 18.7933 20.5586ZM11.4033 4.52252H12.5925C12.6859 4.52252 12.7624 4.44144 12.7624 4.34234V2.18018C12.7624 2.08108 12.6859 2 12.5925 2H11.4033C11.3098 2 11.2334 2.08108 11.2334 2.18018V4.34234C11.2334 4.44144 11.3098 4.52252 11.4033 4.52252Z" fill="#9285EE"/>
</svg>
