<svg width="24" height="24" viewBox="0 0 24 24" fill="none" xmlns="http://www.w3.org/2000/svg">
<path d="M12 3C7.03725 3 3 7.03725 3 12C3 16.9628 7.03725 21 12 21C16.9628 21 21 16.9628 21 12C21 7.03725 16.9628 3 12 3ZM12 4.5C16.1512 4.5 19.5 7.84875 19.5 12C19.5 16.1512 16.1512 19.5 12 19.5C7.84875 19.5 4.5 16.1512 4.5 12C4.5 7.84875 7.84875 4.5 12 4.5ZM8.01525 9C7.68577 9.32941 7.50046 9.7761 7.5 10.242C7.5004 10.7081 7.68574 11.1551 8.01535 11.4847C8.34495 11.8143 8.79187 11.9996 9.258 12C9.741 12 10.1835 11.8035 10.5 11.484L8.01525 9ZM15.9847 9L13.5 11.4847C13.6627 11.6484 13.8563 11.7782 14.0694 11.8667C14.2826 11.9551 14.5112 12.0004 14.742 12C15.2081 11.9996 15.6551 11.8143 15.9847 11.4847C16.3143 11.1551 16.4996 10.7081 16.5 10.242C16.5 9.759 16.3042 9.3165 15.9847 9ZM13.9222 13.383C13.8124 13.3848 13.7027 13.3926 13.5938 13.4062C12.753 13.5323 12.117 13.992 11.5545 14.367C10.992 14.742 10.497 15.0345 10.125 15.0938C9.753 15.1523 9.41925 15.0938 8.78925 14.4608L7.71 15.54C8.55975 16.395 9.5265 16.7025 10.3582 16.5712C11.1908 16.4392 11.8148 15.9825 12.3743 15.6097C12.9338 15.2378 13.4145 14.9655 13.8038 14.907C14.1938 14.8485 14.5778 14.898 15.234 15.54L16.2653 14.4615C15.4973 13.7115 14.6798 13.3717 13.9215 13.3837L13.9222 13.383Z" fill="#9285EE"/>
</svg>
