<svg width="16" height="16" viewBox="0 0 16 16" fill="none" xmlns="http://www.w3.org/2000/svg">
<path d="M8.31248 4.34943C8.22967 4.34943 8.15025 4.31857 8.09161 4.26362C8.03297 4.20867 7.9999 4.13411 7.99966 4.05629C7.99966 3.51092 8.23017 2.9879 8.64049 2.60227C9.0508 2.21664 9.60731 2 10.1876 2C10.3609 2 10.4995 2.132 10.4995 2.294C10.499 2.83892 10.2684 3.36137 9.85834 3.7466C9.44828 4.13184 8.89228 4.3492 8.31248 4.34943ZM12.8753 10.5346C12.9957 10.6194 13.0349 10.7746 12.9665 10.9006C11.8675 12.9697 10.9892 14 10.1876 14C9.81457 14 9.44794 13.8869 9.09043 13.6657C8.83505 13.5076 8.5374 13.4205 8.23168 13.4143C7.92596 13.4081 7.62458 13.483 7.36216 13.6306C6.92987 13.874 6.51673 14 6.12547 14C4.94533 14 3 10.5869 3 8.71314C3 6.71429 4.11539 5.18857 5.81265 5.18857C6.61066 5.18857 7.30015 5.3 7.87928 5.52286C8.12461 5.61886 8.40186 5.612 8.64172 5.504C9.11141 5.29143 9.73066 5.18857 10.5004 5.18857C11.4398 5.18857 12.2569 5.62829 12.9373 6.48114C12.9871 6.54345 13.0085 6.62177 12.9969 6.69892C12.9853 6.77606 12.9415 6.84571 12.8753 6.89257C12.1156 7.42743 11.7499 8.02914 11.7499 8.71314C11.7499 9.398 12.1156 9.99886 12.8753 10.5346Z" stroke="#B7B6E0"/>
</svg>
