<svg width="25" height="24" viewBox="0 0 25 24" fill="none" xmlns="http://www.w3.org/2000/svg">
<path d="M10.5581 15.4701C10.632 15.5388 10.6912 15.6216 10.7323 15.7136C10.7735 15.8056 10.7956 15.9049 10.7973 16.0056C10.7991 16.1063 10.7805 16.2063 10.7427 16.2997C10.7049 16.3931 10.6486 16.4779 10.5772 16.5491C10.5058 16.6203 10.4207 16.6765 10.3271 16.7142C10.2334 16.7519 10.1332 16.7705 10.0322 16.7687C9.93121 16.7669 9.83163 16.7449 9.73938 16.7039C9.64714 16.6629 9.56412 16.6038 9.49527 16.5301L5.48457 12.5301C5.34375 12.3895 5.26465 12.1988 5.26465 12.0001C5.26465 11.8013 5.34375 11.6107 5.48457 11.4701L9.49527 7.47009C9.56412 7.3964 9.64714 7.3373 9.73938 7.29631C9.83163 7.25532 9.93121 7.23328 10.0322 7.2315C10.1332 7.22972 10.2334 7.24825 10.3271 7.28597C10.4207 7.32369 10.5058 7.37983 10.5772 7.45105C10.6486 7.52227 10.7049 7.60711 10.7427 7.70049C10.7805 7.79388 10.7991 7.89391 10.7973 7.99461C10.7956 8.09532 10.7735 8.19463 10.7323 8.28663C10.6912 8.37863 10.632 8.46143 10.5581 8.53009L7.83083 11.2501L17.5467 11.2501C17.7462 11.2501 17.9375 11.3291 18.0785 11.4698C18.2195 11.6104 18.2987 11.8012 18.2987 12.0001C18.2987 12.199 18.2195 12.3898 18.0785 12.5304C17.9375 12.6711 17.7462 12.7501 17.5467 12.7501L7.83083 12.7501L10.5581 15.4701Z" fill="white"/>
</svg>
