<svg width="24" height="24" viewBox="0 0 24 24" fill="none" xmlns="http://www.w3.org/2000/svg">
<path d="M12 21C13.1821 21.0015 14.3529 20.7694 15.445 20.3171C16.5372 19.8647 17.5291 19.2009 18.3639 18.3639C19.2009 17.5291 19.8647 16.5372 20.3171 15.445C20.7694 14.3529 21.0015 13.1821 21 12C21.0015 10.8179 20.7694 9.64713 20.317 8.555C19.8646 7.46287 19.2009 6.47091 18.3639 5.63611C17.5291 4.79912 16.5372 4.13536 15.445 3.68297C14.3529 3.23058 13.1821 2.99848 12 3.00001C10.8179 2.9985 9.64713 3.23061 8.555 3.683C7.46287 4.13539 6.47091 4.79914 5.63611 5.63611C4.79914 6.47091 4.13539 7.46287 3.683 8.555C3.23061 9.64713 2.9985 10.8179 3.00001 12C2.99848 13.1821 3.23058 14.3529 3.68297 15.445C4.13536 16.5372 4.79912 17.5291 5.63611 18.3639C6.47091 19.2009 7.46287 19.8646 8.555 20.317C9.64713 20.7694 10.8179 21.0015 12 21Z" stroke="#9285EE" stroke-width="1.5" stroke-linejoin="round"/>
<path fill-rule="evenodd" clip-rule="evenodd" d="M12 17.8501C12.2984 17.8501 12.5845 17.7316 12.7955 17.5206C13.0065 17.3096 13.125 17.0235 13.125 16.7251C13.125 16.4267 13.0065 16.1406 12.7955 15.9296C12.5845 15.7186 12.2984 15.6001 12 15.6001C11.7016 15.6001 11.4155 15.7186 11.2045 15.9296C10.9935 16.1406 10.875 16.4267 10.875 16.7251C10.875 17.0235 10.9935 17.3096 11.2045 17.5206C11.4155 17.7316 11.7016 17.8501 12 17.8501Z" fill="#9285EE"/>
<path d="M12 6.6001V13.8001" stroke="#9285EE" stroke-width="1.5" stroke-linecap="round" stroke-linejoin="round"/>
</svg>
