<svg width="16" height="16" viewBox="0 0 16 16" fill="none" xmlns="http://www.w3.org/2000/svg">
<g id="bell_icon">
<path id="Vector" d="M6.66667 13.9997H9.33333C9.33333 14.733 8.73333 15.333 8 15.333C7.26667 15.333 6.66667 14.733 6.66667 13.9997ZM14 12.6663V13.333H2V12.6663L3.33333 11.333V7.33301C3.33333 5.26634 4.66667 3.46634 6.66667 2.86634V2.66634C6.66667 1.93301 7.26667 1.33301 8 1.33301C8.73333 1.33301 9.33333 1.93301 9.33333 2.66634V2.86634C11.3333 3.46634 12.6667 5.26634 12.6667 7.33301V11.333L14 12.6663ZM11.3333 7.33301C11.3333 5.46634 9.86667 3.99967 8 3.99967C6.13333 3.99967 4.66667 5.46634 4.66667 7.33301V11.9997H11.3333V7.33301Z" fill="#1D1D1D"/>
</g>
</svg>
