<svg width="24" height="24" viewBox="0 0 24 24" fill="none" xmlns="http://www.w3.org/2000/svg">
<path d="M10.0023 11.0013C10.1337 11.0013 10.2638 10.9754 10.3852 10.9251C10.5065 10.8748 10.6168 10.8012 10.7097 10.7083C10.8026 10.6154 10.8763 10.5051 10.9266 10.3837C10.9769 10.2623 11.0027 10.1322 11.0027 10.0009C11.0027 9.8695 10.9769 9.73942 10.9266 9.61804C10.8763 9.49667 10.8026 9.38639 10.7097 9.2935C10.6168 9.2006 10.5065 9.12691 10.3852 9.07664C10.2638 9.02636 10.1337 9.00049 10.0023 9.00049C9.73702 9.00049 9.48257 9.10589 9.29496 9.2935C9.10735 9.4811 9.00195 9.73556 9.00195 10.0009C9.00195 10.2662 9.10735 10.5206 9.29496 10.7083C9.48257 10.8959 9.73702 11.0013 10.0023 11.0013Z" fill="#9285EE"/>
<path fill-rule="evenodd" clip-rule="evenodd" d="M5.00491 15.3383V22.0012H14.5126V18.383H16.8979C17.0468 18.383 17.189 18.3536 17.3185 18.3008L15.9961 17.2718H13.4014V20.89H6.11559V14.8904L5.80444 14.5676C4.89323 13.6203 3.11026 11.4062 3.11026 8.65253C3.11026 7.74688 3.45196 6.36006 4.48041 5.21326C5.38773 4.20149 6.91012 3.28805 9.44595 3.13359V7.05069C9.00748 7.13378 8.59307 7.31364 8.23291 7.57716C7.87275 7.84068 7.57592 8.18123 7.36403 8.57399C7.15214 8.96675 7.03053 9.40184 7.00807 9.84754C6.98561 10.2932 7.06286 10.7384 7.23419 11.1504C7.40552 11.5625 7.66662 11.9312 7.99846 12.2296C8.3303 12.528 8.72453 12.7486 9.15242 12.8753C9.58032 13.0021 10.0311 13.0318 10.4719 12.9623C10.9127 12.8927 11.3325 12.7258 11.7006 12.4735L19.5182 18.5425C19.47 18.8203 19.5171 19.1062 19.6519 19.3538C19.7867 19.6014 20.0013 19.7962 20.2607 19.9065C20.5201 20.0168 20.8092 20.0362 21.0811 19.9615C21.3529 19.8869 21.5916 19.7225 21.7582 19.4951C21.9249 19.2677 22.0098 18.9907 21.9992 18.709C21.9886 18.4272 21.883 18.1574 21.6997 17.9432C21.5164 17.729 21.2661 17.5831 20.9894 17.5291C20.7127 17.4751 20.4258 17.5162 20.1755 17.6457L12.4891 11.6779C12.7671 11.2657 12.9383 10.7908 12.9875 10.2961C13.0366 9.80131 12.962 9.30209 12.7705 8.84327C12.579 8.38445 12.2764 7.98039 11.8901 7.66741C11.5038 7.35442 11.0458 7.14231 10.5572 7.05013V3.11359C11.9701 3.1397 12.9491 3.32917 13.6897 3.60698C14.4743 3.90145 15.056 4.31817 15.6422 4.861L15.7211 4.93435C16.2956 5.46663 16.4667 5.62553 16.564 5.88445L18.9159 12.1462H16.8979V13.7509L18.0091 14.6149V13.2575H18.9159C19.0955 13.2577 19.2724 13.2144 19.4316 13.1312C19.5907 13.0481 19.7273 12.9275 19.8297 12.78C19.932 12.6324 19.997 12.4622 20.0191 12.284C20.0412 12.1058 20.0197 11.9249 19.9565 11.7568L17.6041 5.49329C17.4102 4.97657 17.0351 4.63209 16.5628 4.19871L16.3978 4.04647C15.0838 2.828 13.5886 1.99902 10.221 1.99902C3.66921 1.99902 1.99902 6.3745 1.99902 8.65253C1.99902 11.8568 4.04536 14.3426 5.00491 15.3383ZM10.0016 11.8896C10.2497 11.8896 10.4954 11.8407 10.7247 11.7458C10.954 11.6509 11.1623 11.5117 11.3378 11.3363C11.5133 11.1608 11.6526 10.9525 11.7475 10.7233C11.8425 10.494 11.8915 10.2483 11.8915 10.0002C11.8915 9.75203 11.8427 9.5063 11.7478 9.27702C11.6528 9.04774 11.5137 8.83941 11.3382 8.66391C11.1628 8.48842 10.9545 8.34919 10.7252 8.2542C10.496 8.1592 10.2503 8.11029 10.0021 8.11025C9.50095 8.11025 9.02032 8.30934 8.66594 8.66372C8.31156 9.01809 8.11247 9.49873 8.11247 9.9999C8.11247 10.5011 8.31156 10.9817 8.66594 11.3361C9.02032 11.6905 9.5004 11.8896 10.0016 11.8896Z" fill="#9285EE"/>
</svg>
