<svg width="24" height="24" viewBox="0 0 24 24" fill="none" xmlns="http://www.w3.org/2000/svg">
<path d="M5 4H9L11 9L8.5 10.5C9.6 12.7 11.3 14.4 13.5 15.5L15 13L20 15V19C20 19.5 19.8 20 19.4 20.4C19 20.8 18.5 21 18 21C14.1 20.8 10.4 19.1 7.7 16.3C4.9 13.6 3.2 9.9 3 6C3 5.5 3.2 5 3.6 4.6C4 4.2 4.5 4 5 4Z" stroke="#9285EE" stroke-width="2" stroke-linecap="round" stroke-linejoin="round"/>
<path d="M16.7998 7.8C16.6998 6.9 16.9998 6.3 17.7998 5.8C18.5998 5.3 18.7998 5 18.7998 4.5C18.7998 4 18.3998 3.7 17.7998 3.7C17.1998 3.7 16.7998 4.1 16.7998 4.6H14.7998C14.7998 3.1 15.9998 2 17.8998 2C19.7998 2 20.9998 3 20.9998 4.4C20.9998 5.3 20.5998 5.9 19.6998 6.4C18.9998 7 18.7998 7.3 18.7998 7.9V8H16.8998L16.7998 7.8ZM16.6998 9.9C16.6998 9.3 17.1998 8.8 17.8998 8.8C18.4998 8.8 19.0998 9.3 19.0998 9.9C19.0998 10.5 18.5998 11 17.8998 11C17.1998 11 16.6998 10.6 16.6998 9.9Z" fill="#9285EE"/>
</svg>
