<svg width="15" height="15" viewBox="0 0 15 15" fill="none" xmlns="http://www.w3.org/2000/svg">
<path d="M12.6333 6.80562H13V6.70938L12.9479 6.627L12.6333 6.80562ZM2.36667 6.80562L2.05207 6.627L2 6.71077V6.80631L2.36667 6.80562ZM4.56667 10.2692V9.92308H4.2V10.2692H4.56667ZM10.4333 10.2692H10.8V9.92308H10.4333V10.2692ZM12.2667 6.80562V10.9615H13V6.80562H12.2667ZM2.68127 6.98354L4.24033 4.53277L3.61113 4.17554L2.05207 6.627L2.68127 6.98354ZM5.81187 3.69231H9.18813V3H5.81187V3.69231ZM10.7597 4.53208L12.3187 6.98354L12.9479 6.627L11.3889 4.17554L10.7597 4.53208ZM3.83333 11.3077H3.1V12H3.83333V11.3077ZM4.2 10.2692V10.9615H4.93333V10.2692H4.2ZM11.9 11.3077H11.1667V12H11.9V11.3077ZM10.8 10.9615V10.2692H10.0667V10.9615H10.8ZM10.4333 9.92308H4.56667V10.6154H10.4333V9.92308ZM2.73333 10.9615V6.80562L2 6.80631V10.9615H2.73333ZM11.1667 11.3077C11.0694 11.3077 10.9762 11.2712 10.9074 11.2063C10.8386 11.1414 10.8 11.0533 10.8 10.9615H10.0667C10.0667 11.237 10.1826 11.5011 10.3888 11.6958C10.5951 11.8906 10.8749 12 11.1667 12V11.3077ZM3.83333 12C4.12507 12 4.40486 11.8906 4.61115 11.6958C4.81744 11.5011 4.93333 11.237 4.93333 10.9615H4.2C4.2 11.0533 4.16137 11.1414 4.09261 11.2063C4.02384 11.2712 3.93058 11.3077 3.83333 11.3077V12ZM3.1 11.3077C3.00275 11.3077 2.90949 11.2712 2.84073 11.2063C2.77196 11.1414 2.73333 11.0533 2.73333 10.9615H2C2 11.237 2.11589 11.5011 2.32218 11.6958C2.52847 11.8906 2.80826 12 3.1 12V11.3077ZM9.18813 3.69231C9.50458 3.69234 9.81563 3.7697 10.091 3.91686C10.3664 4.06402 10.5968 4.27596 10.7597 4.53208L11.3889 4.17554C11.1607 3.81692 10.8381 3.52017 10.4525 3.31417C10.0668 3.10817 9.63124 2.99994 9.18813 3V3.69231ZM4.24033 4.53277C4.40324 4.27665 4.63359 4.06402 4.90898 3.91686C5.18437 3.7697 5.49542 3.69234 5.81187 3.69231V3C5.36888 3.00006 4.93345 3.10835 4.54794 3.31434C4.16242 3.52034 3.83921 3.81702 3.61113 4.17554L4.24033 4.53277ZM12.2667 10.9615C12.2667 11.0533 12.228 11.1414 12.1593 11.2063C12.0905 11.2712 11.9972 11.3077 11.9 11.3077V12C12.1917 12 12.4715 11.8906 12.6778 11.6958C12.8841 11.5011 13 11.237 13 10.9615H12.2667ZM3.46667 9.23077H5.66667V8.53846H3.46667V9.23077ZM11.5333 8.53846H9.33333V9.23077H11.5333V8.53846ZM4.2 7.15385H10.8V6.46154H4.2V7.15385Z" fill="#B7B6E0"/>
</svg>
