<svg width="48" height="48" viewBox="0 0 48 48" fill="none" xmlns="http://www.w3.org/2000/svg">
<g id="chat_def_icon 3">
<path id="Vector" d="M40.8823 41.6804C40.3774 41.6804 39.677 41.2406 37.9831 40.1819L37.9668 40.1656C36.6475 39.3349 34.1718 37.7713 33.3737 37.7713C33.3574 37.7713 33.3411 37.7713 33.3085 37.7713C32.4778 37.9016 31.6309 37.9668 30.7839 37.9668C22.8681 37.9668 16.4507 32.4615 16.4507 25.6858C16.4507 18.9101 22.8843 13.4048 30.7839 13.4048C38.6835 13.4048 45.1171 18.9101 45.1171 25.6858C45.1171 28.7316 43.8141 31.6471 41.4361 33.9111C41.2569 34.1229 41.3058 35.5236 41.5664 38.0645C41.8107 40.3936 41.9084 41.2732 41.2406 41.5989C41.1429 41.6478 41.0126 41.6804 40.8823 41.6804ZM33.3411 36.3869C34.4812 36.3869 36.2892 37.4781 38.716 38.9929C39.2535 39.3349 39.905 39.7421 40.3774 40.0027C40.3448 39.4815 40.2634 38.7486 40.2145 38.1785C39.905 35.3444 39.7747 33.5691 40.4914 32.8687C42.5925 30.8816 43.749 28.3081 43.749 25.6532C43.749 19.6431 37.9342 14.7567 30.8002 14.7567C23.6499 14.7567 17.8514 19.6431 17.8514 25.6532C17.8514 31.6634 23.6662 36.5497 30.8002 36.5497C31.582 36.5497 32.3475 36.4846 33.1131 36.3706C33.1619 36.3869 33.2434 36.3869 33.3411 36.3869Z" fill="#9285EE"/>
<path id="Vector_2" d="M6.53144 30.507C6.41743 30.507 6.30341 30.4744 6.1894 30.4255C5.60304 30.1323 5.68448 29.3831 5.89622 27.3797C6.1894 24.7411 6.12425 24.0081 6.01023 23.8616C3.99055 21.9396 2.8667 19.4476 2.8667 16.8415C2.8667 11.0431 8.37196 6.33594 15.1314 6.33594C19.92 6.33594 24.3014 8.76281 26.3048 12.509L26.4351 12.7533L25.2461 13.1605L25.1483 12.9813C23.3567 9.69121 19.4151 7.57381 15.1314 7.57381C9.05604 7.57381 4.12086 11.7272 4.12086 16.8415C4.12086 19.1055 5.09812 21.2718 6.87349 22.9657C7.50871 23.5684 7.39469 25.0831 7.13409 27.51C7.08523 27.9172 7.02008 28.5361 6.9875 28.9922C7.34583 28.7805 7.81817 28.4873 8.24166 28.2267L8.33938 28.1615C10.4079 26.8585 11.9553 25.9301 12.9488 25.9301C13.0303 25.9301 13.0954 25.9301 13.1606 25.9464C13.7469 26.0278 14.3333 26.0767 14.9196 26.093H15.1639L15.0499 27.3471H14.8382C14.203 27.3308 13.5677 27.282 12.9651 27.2005C12.9488 27.2005 12.9325 27.2005 12.9162 27.2005C12.2322 27.2005 10.0496 28.585 8.99089 29.2365C7.50871 30.1812 6.95492 30.507 6.53144 30.507ZM18.959 25.5229L19.1544 25.4578C23.3241 24.0733 26.0605 20.7506 26.1419 16.9881V16.7764L27.396 16.6949V16.9393C27.3472 21.2229 24.1711 25.132 19.4802 26.6468L19.2359 26.7282L18.959 25.5229Z" fill="#9285EE"/>
</g>
</svg>
