<svg width="16" height="16" viewBox="0 0 16 16" fill="none" xmlns="http://www.w3.org/2000/svg">
<path d="M5.73991 3.20009C5.66767 3.26706 5.60934 3.34761 5.56823 3.43712C5.52713 3.52664 5.50406 3.62338 5.50035 3.72181C5.49663 3.82024 5.51235 3.91844 5.54659 4.0108C5.58083 4.10316 5.63293 4.18787 5.69991 4.26009L9.22691 8.00009L5.69991 11.7401C5.63293 11.8123 5.58084 11.897 5.54661 11.9894C5.51237 12.0817 5.49666 12.1799 5.50038 12.2784C5.50409 12.3768 5.52716 12.4735 5.56825 12.5631C5.60935 12.6526 5.66768 12.7331 5.73991 12.8001C5.81214 12.8671 5.89685 12.9192 5.98921 12.9534C6.08157 12.9876 6.17976 13.0033 6.27819 12.9996C6.37662 12.9959 6.47336 12.9728 6.56287 12.9317C6.65239 12.8906 6.73294 12.8323 6.79991 12.7601L10.7999 8.51009C10.9285 8.37141 11 8.18924 11 8.00009C11 7.81095 10.9285 7.62878 10.7999 7.49009L6.79991 3.24009C6.73294 3.16786 6.6524 3.10952 6.56288 3.06842C6.47336 3.02732 6.37663 3.00425 6.27819 3.00053C6.17976 2.99682 6.08156 3.01253 5.9892 3.04677C5.89684 3.08101 5.81213 3.13311 5.73991 3.20009Z" fill="#9285EE"/>
</svg>
