<svg width="16" height="16" viewBox="0 0 16 16" fill="none" xmlns="http://www.w3.org/2000/svg">
<path d="M12.7999 5.73991C12.7329 5.66767 12.6524 5.60934 12.5629 5.56823C12.4734 5.52713 12.3766 5.50406 12.2782 5.50035C12.1798 5.49663 12.0816 5.51235 11.9892 5.54659C11.8968 5.58083 11.8121 5.63293 11.7399 5.69991L7.99991 9.22691L4.25991 5.69991C4.18768 5.63293 4.10297 5.58084 4.01061 5.54661C3.91825 5.51237 3.82005 5.49666 3.72162 5.50037C3.62319 5.50409 3.52646 5.52715 3.43694 5.56825C3.34742 5.60935 3.26688 5.66768 3.19991 5.73991C3.13293 5.81213 3.08084 5.89685 3.0466 5.9892C3.01237 6.08156 2.99666 6.17976 3.00037 6.27819C3.00409 6.37662 3.02715 6.47336 3.06825 6.56287C3.10935 6.65239 3.16768 6.73293 3.23991 6.79991L7.48991 10.7999C7.62859 10.9285 7.81076 11 7.99991 11C8.18905 11 8.37122 10.9285 8.50991 10.7999L12.7599 6.79991C12.8321 6.73294 12.8905 6.6524 12.9316 6.56288C12.9727 6.47336 12.9958 6.37663 12.9995 6.27819C13.0032 6.17976 12.9875 6.08156 12.9532 5.9892C12.919 5.89684 12.8669 5.81213 12.7999 5.73991Z" fill="#9285EE"/>
</svg>
