<svg width="12" height="12" viewBox="0 0 12 12" fill="none" xmlns="http://www.w3.org/2000/svg">
<path d="M3.75 1.45605L1.125 2.76855V10.4999H10.875V3.74993H6.375V2.76855L3.75 1.45605ZM3.75 2.2938L5.625 3.2313V9.74993H1.875V3.2313L3.75 2.2938ZM2.625 3.74993V4.49993H3.375V3.74993H2.625ZM4.125 3.74993V4.49993H4.875V3.74993H4.125ZM6.375 4.49993H10.125V9.74993H6.375V4.49993ZM2.625 5.24993V5.99993H3.375V5.24993H2.625ZM4.125 5.24993V5.99993H4.875V5.24993H4.125ZM7.125 5.24993V5.99993H7.875V5.24993H7.125ZM8.625 5.24993V5.99993H9.375V5.24993H8.625ZM2.625 6.74993V7.49993H3.375V6.74993H2.625ZM4.125 6.74993V7.49993H4.875V6.74993H4.125ZM7.125 6.74993V7.49993H7.875V6.74993H7.125ZM8.625 6.74993V7.49993H9.375V6.74993H8.625ZM2.625 8.24993V8.99993H3.375V8.24993H2.625ZM4.125 8.24993V8.99993H4.875V8.24993H4.125ZM7.125 8.24993V8.99993H7.875V8.24993H7.125ZM8.625 8.24993V8.99993H9.375V8.24993H8.625Z" fill="#9285EE"/>
</svg>
