<svg width="24" height="24" viewBox="0 0 24 24" fill="none" xmlns="http://www.w3.org/2000/svg">
<path d="M12.0001 18.0001C12.4548 18.0001 12.8908 18.1807 13.2123 18.5022C13.5338 18.8237 13.7144 19.2597 13.7144 19.7144C13.7144 20.169 13.5338 20.6051 13.2123 20.9266C12.8908 21.2481 12.4548 21.4287 12.0001 21.4287C11.5454 21.4287 11.1094 21.2481 10.7879 20.9266C10.4664 20.6051 10.2858 20.169 10.2858 19.7144C10.2858 19.2597 10.4664 18.8237 10.7879 18.5022C11.1094 18.1807 11.5454 18.0001 12.0001 18.0001ZM19.7144 18.0001C20.169 18.0001 20.6051 18.1807 20.9266 18.5022C21.2481 18.8237 21.4287 19.2597 21.4287 19.7144C21.4287 20.169 21.2481 20.6051 20.9266 20.9266C20.6051 21.2481 20.169 21.4287 19.7144 21.4287C19.2597 21.4287 18.8237 21.2481 18.5022 20.9266C18.1807 20.6051 18.0001 20.169 18.0001 19.7144C18.0001 19.2597 18.1807 18.8237 18.5022 18.5022C18.8237 18.1807 19.2597 18.0001 19.7144 18.0001ZM4.28582 18.0001C4.74048 18.0001 5.17651 18.1807 5.498 18.5022C5.81949 18.8237 6.0001 19.2597 6.0001 19.7144C6.0001 20.169 5.81949 20.6051 5.498 20.9266C5.17651 21.2481 4.74048 21.4287 4.28582 21.4287C3.83116 21.4287 3.39513 21.2481 3.07364 20.9266C2.75214 20.6051 2.57153 20.169 2.57153 19.7144C2.57153 19.2597 2.75214 18.8237 3.07364 18.5022C3.39513 18.1807 3.83116 18.0001 4.28582 18.0001ZM12.0001 10.2858C12.4548 10.2858 12.8908 10.4664 13.2123 10.7879C13.5338 11.1094 13.7144 11.5454 13.7144 12.0001C13.7144 12.4548 13.5338 12.8908 13.2123 13.2123C12.8908 13.5338 12.4548 13.7144 12.0001 13.7144C11.5454 13.7144 11.1094 13.5338 10.7879 13.2123C10.4664 12.8908 10.2858 12.4548 10.2858 12.0001C10.2858 11.5454 10.4664 11.1094 10.7879 10.7879C11.1094 10.4664 11.5454 10.2858 12.0001 10.2858ZM19.7144 10.2858C20.169 10.2858 20.6051 10.4664 20.9266 10.7879C21.2481 11.1094 21.4287 11.5454 21.4287 12.0001C21.4287 12.4548 21.2481 12.8908 20.9266 13.2123C20.6051 13.5338 20.169 13.7144 19.7144 13.7144C19.2597 13.7144 18.8237 13.5338 18.5022 13.2123C18.1807 12.8908 18.0001 12.4548 18.0001 12.0001C18.0001 11.5454 18.1807 11.1094 18.5022 10.7879C18.8237 10.4664 19.2597 10.2858 19.7144 10.2858ZM4.28582 10.2858C4.74048 10.2858 5.17651 10.4664 5.498 10.7879C5.81949 11.1094 6.0001 11.5454 6.0001 12.0001C6.0001 12.4548 5.81949 12.8908 5.498 13.2123C5.17651 13.5338 4.74048 13.7144 4.28582 13.7144C3.83116 13.7144 3.39513 13.5338 3.07364 13.2123C2.75214 12.8908 2.57153 12.4548 2.57153 12.0001C2.57153 11.5454 2.75214 11.1094 3.07364 10.7879C3.39513 10.4664 3.83116 10.2858 4.28582 10.2858ZM12.0001 2.57153C12.4548 2.57153 12.8908 2.75214 13.2123 3.07364C13.5338 3.39513 13.7144 3.83116 13.7144 4.28582C13.7144 4.74048 13.5338 5.17651 13.2123 5.498C12.8908 5.81949 12.4548 6.0001 12.0001 6.0001C11.5454 6.0001 11.1094 5.81949 10.7879 5.498C10.4664 5.17651 10.2858 4.74048 10.2858 4.28582C10.2858 3.83116 10.4664 3.39513 10.7879 3.07364C11.1094 2.75214 11.5454 2.57153 12.0001 2.57153ZM19.7144 2.57153C20.169 2.57153 20.6051 2.75214 20.9266 3.07364C21.2481 3.39513 21.4287 3.83116 21.4287 4.28582C21.4287 4.74048 21.2481 5.17651 20.9266 5.498C20.6051 5.81949 20.169 6.0001 19.7144 6.0001C19.2597 6.0001 18.8237 5.81949 18.5022 5.498C18.1807 5.17651 18.0001 4.74048 18.0001 4.28582C18.0001 3.83116 18.1807 3.39513 18.5022 3.07364C18.8237 2.75214 19.2597 2.57153 19.7144 2.57153ZM4.28582 2.57153C4.74048 2.57153 5.17651 2.75214 5.498 3.07364C5.81949 3.39513 6.0001 3.83116 6.0001 4.28582C6.0001 4.74048 5.81949 5.17651 5.498 5.498C5.17651 5.81949 4.74048 6.0001 4.28582 6.0001C3.83116 6.0001 3.39513 5.81949 3.07364 5.498C2.75214 5.17651 2.57153 4.74048 2.57153 4.28582C2.57153 3.83116 2.75214 3.39513 3.07364 3.07364C3.39513 2.75214 3.83116 2.57153 4.28582 2.57153Z" fill="#9285EE"/>
</svg>
