<svg width="24" height="24" viewBox="0 0 24 24" fill="none" xmlns="http://www.w3.org/2000/svg">
<path d="M4.8 22V20.1818H19.2V22H4.8ZM4.8 3.81818V2H19.2V3.81818H4.8ZM12 12.9091C12.75 12.9091 13.3875 12.6439 13.9125 12.1136C14.4375 11.5833 14.7 10.9394 14.7 10.1818C14.7 9.42424 14.4375 8.7803 13.9125 8.25C13.3875 7.7197 12.75 7.45455 12 7.45455C11.25 7.45455 10.6125 7.7197 10.0875 8.25C9.5625 8.7803 9.3 9.42424 9.3 10.1818C9.3 10.9394 9.5625 11.5833 10.0875 12.1136C10.6125 12.6439 11.25 12.9091 12 12.9091ZM4.8 19.2727C4.305 19.2727 3.8811 19.0945 3.5283 18.7382C3.1755 18.3818 2.9994 17.9539 3 17.4545V6.54545C3 6.04545 3.1764 5.61727 3.5292 5.26091C3.882 4.90455 4.3056 4.72667 4.8 4.72727H19.2C19.695 4.72727 20.1189 4.90545 20.4717 5.26182C20.8245 5.61818 21.0006 6.04606 21 6.54545V17.4545C21 17.9545 20.8236 18.3827 20.4708 18.7391C20.118 19.0955 19.6944 19.2733 19.2 19.2727H4.8ZM6.375 17.4545C7.05 16.6061 7.8675 15.9394 8.8275 15.4545C9.7875 14.9697 10.845 14.7273 12 14.7273C13.155 14.7273 14.2125 14.9697 15.1725 15.4545C16.1325 15.9394 16.95 16.6061 17.625 17.4545H19.2V6.54545H4.8V17.4545H6.375ZM9.03 17.4545H14.97C14.535 17.1515 14.0661 16.9242 13.5633 16.7727C13.0605 16.6212 12.5394 16.5455 12 16.5455C11.46 16.5455 10.9386 16.6212 10.4358 16.7727C9.933 16.9242 9.4644 17.1515 9.03 17.4545ZM12 11.0909C11.745 11.0909 11.5311 11.0036 11.3583 10.8291C11.1855 10.6545 11.0994 10.4388 11.1 10.1818C11.1 9.92424 11.1864 9.70818 11.3592 9.53364C11.532 9.35909 11.7456 9.27212 12 9.27273C12.255 9.27273 12.4689 9.36 12.6417 9.53455C12.8145 9.70909 12.9006 9.92485 12.9 10.1818C12.9 10.4394 12.8136 10.6555 12.6408 10.83C12.468 11.0045 12.2544 11.0915 12 11.0909Z" fill="#9285EE"/>
</svg>
