<svg width="16" height="16" viewBox="0 0 16 16" fill="none" xmlns="http://www.w3.org/2000/svg">
<path d="M5 14H3.33333C2.97971 14 2.64057 13.8595 2.39052 13.6095C2.14048 13.3594 2 13.0203 2 12.6667V3.33333C2 2.97971 2.14048 2.64057 2.39052 2.39052C2.64057 2.14048 2.97971 2 3.33333 2H12.6667C13.0203 2 13.3594 2.14048 13.6095 2.39052C13.8595 2.64057 14 2.97971 14 3.33333V12.6667C14 13.0203 13.8595 13.3594 13.6095 13.6095C13.3594 13.8595 13.0203 14 12.6667 14H11M14 4.66667H2M8 10.6667V14M8 14H6.66667M8 14H9.33333" stroke="#B7B6E0" stroke-linecap="round" stroke-linejoin="round"/>
<path d="M12 3.3401L12.0067 3.33276M10 3.3401L10.0067 3.33276M8 10.6668C9.10467 10.6668 10 9.6721 10 8.44476V6.66676H6V8.44476C6 9.67143 6.89533 10.6668 8 10.6668Z" stroke="#B7B6E0" stroke-linecap="round" stroke-linejoin="round"/>
</svg>
