<svg width="16" height="16" viewBox="0 0 16 16" fill="none" xmlns="http://www.w3.org/2000/svg">
<path d="M6.56522 13.1062C5.28261 12.9597 4.20109 12.4518 3.32065 11.5824C2.44022 10.7131 2 9.68742 2 8.5055C2 7.86081 2.13304 7.26261 2.39913 6.71092C2.66522 6.15922 3.04304 5.67316 3.53261 5.25275L7.21739 2L10.9022 5.25275C11.2935 5.6044 11.617 6 11.8726 6.43956C12.1283 6.87912 12.2993 7.35287 12.3859 7.86081H11.0652C10.9891 7.52869 10.8615 7.21377 10.6824 6.91604C10.5033 6.61831 10.2722 6.34716 9.98913 6.10256L7.21739 3.64103L4.44565 6.10256C4.06522 6.42491 3.77978 6.78886 3.58935 7.19443C3.39891 7.6 3.30391 8.03702 3.30435 8.5055C3.30435 9.35531 3.61696 10.1026 4.24217 10.7473C4.86739 11.3919 5.64174 11.7827 6.56522 11.9194V13.1062ZM8.06522 10.3077L7.67391 9.50183C7.95652 9.36508 8.25283 9.25275 8.56283 9.16484C8.87283 9.07692 9.18522 9.03297 9.5 9.03297C9.75 9.03297 9.99717 9.05993 10.2415 9.11385C10.4859 9.16777 10.7224 9.2336 10.9511 9.31136C11.1467 9.3895 11.3452 9.45788 11.5465 9.51648C11.7478 9.57509 11.957 9.6044 12.1739 9.6044C12.4239 9.6044 12.6685 9.56532 12.9076 9.48718C13.1467 9.40904 13.3804 9.31624 13.6087 9.20879L14 10.0147C13.7174 10.1514 13.4213 10.2637 13.1117 10.3516C12.8022 10.4396 12.4896 10.4835 12.1739 10.4835C11.9239 10.4835 11.6767 10.4568 11.4324 10.4032C11.188 10.3497 10.9515 10.2837 10.7228 10.2051C10.5272 10.127 10.3287 10.0586 10.1274 10C9.92609 9.94139 9.71696 9.91209 9.5 9.91209C9.25 9.91209 9.00544 9.95116 8.7663 10.0293C8.52717 10.1074 8.29348 10.2002 8.06522 10.3077ZM8.06522 12.0659L7.67391 11.2601C7.95652 11.1233 8.25283 11.011 8.56283 10.9231C8.87283 10.8352 9.18522 10.7912 9.5 10.7912C9.75 10.7912 9.99717 10.8182 10.2415 10.8721C10.4859 10.926 10.7224 10.9918 10.9511 11.0696C11.1467 11.1477 11.3452 11.2161 11.5465 11.2747C11.7478 11.3333 11.957 11.3626 12.1739 11.3626C12.4239 11.3626 12.6685 11.3236 12.9076 11.2454C13.1467 11.1673 13.3804 11.0745 13.6087 10.967L14 11.7729C13.7174 11.9096 13.4213 12.022 13.1117 12.1099C12.8022 12.1978 12.4896 12.2418 12.1739 12.2418C11.9239 12.2418 11.6767 12.2148 11.4324 12.1609C11.188 12.107 10.9515 12.0411 10.7228 11.9634C10.5272 11.8852 10.3287 11.8168 10.1274 11.7582C9.92609 11.6996 9.71696 11.6703 9.5 11.6703C9.25 11.6703 9.00544 11.7094 8.7663 11.7875C8.52717 11.8657 8.29348 11.9585 8.06522 12.0659ZM8.06522 13.8242L7.67391 13.0183C7.95652 12.8816 8.25283 12.7692 8.56283 12.6813C8.87283 12.5934 9.18522 12.5495 9.5 12.5495C9.75 12.5495 9.99717 12.5764 10.2415 12.6303C10.4859 12.6842 10.7224 12.7501 10.9511 12.8278C11.1467 12.906 11.3452 12.9744 11.5465 13.033C11.7478 13.0916 11.957 13.1209 12.1739 13.1209C12.4239 13.1209 12.6685 13.0818 12.9076 13.0037C13.1467 12.9255 13.3804 12.8327 13.6087 12.7253L14 13.5311C13.7174 13.6679 13.4213 13.7802 13.1117 13.8681C12.8022 13.956 12.4896 14 12.1739 14C11.9239 14 11.6767 13.973 11.4324 13.9191C11.188 13.8652 10.9515 13.7994 10.7228 13.7216C10.5272 13.6435 10.3287 13.5751 10.1274 13.5165C9.92609 13.4579 9.71696 13.4286 9.5 13.4286C9.25 13.4286 9.00544 13.4676 8.7663 13.5458C8.52717 13.6239 8.29348 13.7167 8.06522 13.8242Z" fill="#B7B6E0"/>
</svg>
