<svg width="24" height="24" viewBox="0 0 24 24" fill="none" xmlns="http://www.w3.org/2000/svg">
<path d="M20.1602 3.84007C19.8936 3.57343 19.5771 3.36191 19.2287 3.2176C18.8804 3.0733 18.507 2.99902 18.1299 2.99902C17.7529 2.99902 17.3795 3.0733 17.0312 3.2176C16.6828 3.36191 16.3663 3.57343 16.0997 3.84007L5.0072 14.9341C4.73602 15.2054 4.53164 15.5361 4.4102 15.9001L3.0392 20.0146C2.99502 20.1467 2.98852 20.2885 3.0204 20.4241C3.05229 20.5597 3.12132 20.6837 3.21974 20.7823C3.31816 20.8809 3.4421 20.9501 3.57765 20.9822C3.7132 21.0143 3.85502 21.008 3.9872 20.9641L8.1017 19.5916C8.4662 19.4716 8.7962 19.2661 9.0677 18.9946L20.1602 7.90357C20.4268 7.63696 20.6383 7.32045 20.7827 6.9721C20.927 6.62374 21.0012 6.25038 21.0012 5.87332C21.0012 5.49626 20.927 5.12289 20.7827 4.77454C20.6383 4.42618 20.4268 4.10967 20.1602 3.84307V3.84007ZM17.1602 4.90207C17.2875 4.77472 17.4387 4.6737 17.6051 4.60478C17.7715 4.53586 17.9498 4.50038 18.1299 4.50038C18.31 4.50038 18.4884 4.53586 18.6548 4.60478C18.8212 4.6737 18.9723 4.77472 19.0997 4.90207C19.227 5.02942 19.3281 5.1806 19.397 5.34699C19.4659 5.51338 19.5014 5.69172 19.5014 5.87182C19.5014 6.05192 19.4659 6.23025 19.397 6.39664C19.3281 6.56303 19.227 6.71422 19.0997 6.84157L18.0002 7.94107L16.0607 6.00157L17.1617 4.90207H17.1602ZM15.0002 7.06207L16.9382 9.00157L8.0072 17.9326C7.90069 18.0395 7.77076 18.1201 7.6277 18.1681L4.9367 19.0651L5.8337 16.3741C5.88108 16.2306 5.96119 16.1002 6.0677 15.9931L15.0002 7.06207Z" fill="#9285EE"/>
</svg>
