<svg width="24" height="24" viewBox="0 0 24 24" fill="none" xmlns="http://www.w3.org/2000/svg">
<path d="M17.4492 11.3293C17.7161 11.8015 17.9147 12.2934 18.0449 12.805C18.1751 13.3166 18.2435 13.8445 18.25 14.3889V15.4022L12 18.5602L5.75 15.4022C5.75 15.0087 5.75326 14.6414 5.75977 14.3003C5.76628 13.9593 5.79557 13.6281 5.84766 13.3067C5.89974 12.9853 5.97786 12.664 6.08203 12.3426C6.1862 12.0212 6.34245 11.6834 6.55078 11.3293L4.5 10.2963V16.0712C4.6888 16.1368 4.85807 16.2286 5.00781 16.3466C5.15755 16.4647 5.29102 16.6024 5.4082 16.7598C5.52539 16.9172 5.61003 17.0878 5.66211 17.2714C5.71419 17.4551 5.74349 17.6485 5.75 17.8519V21H2V17.8519C2 17.6551 2.0293 17.4649 2.08789 17.2812C2.14648 17.0976 2.23112 16.9238 2.3418 16.7598C2.45247 16.5959 2.58268 16.4581 2.73242 16.3466C2.88216 16.2351 3.05469 16.1433 3.25 16.0712V9.66667L2 9.03704L12 4L22 9.03704L17.4492 11.3293ZM4.5 17.8519C4.5 17.6813 4.43815 17.5338 4.31445 17.4091C4.19076 17.2845 4.04427 17.2222 3.875 17.2222C3.70573 17.2222 3.55924 17.2845 3.43555 17.4091C3.31185 17.5338 3.25 17.6813 3.25 17.8519V19.7407H4.5V17.8519ZM4.79297 9.03704L12 12.6672L19.207 9.03704L12 5.40683L4.79297 9.03704ZM17 14.625C17 14.12 16.9512 13.651 16.8535 13.2182C16.7559 12.7853 16.5833 12.3426 16.3359 11.89L12 14.0741L7.66406 11.89C7.44922 12.2704 7.28646 12.6705 7.17578 13.0903C7.0651 13.51 7.00651 13.9429 7 14.3889V14.625L12 17.1435L17 14.625Z" fill="#9285EE"/>
</svg>
