<svg width="16" height="16" viewBox="0 0 16 16" fill="none" xmlns="http://www.w3.org/2000/svg">
<g id="tabler_progress-bolt 1">
<g id="Group">
<path id="Vector" d="M6.6999 14.5001H6.5999C5.9999 14.4001 5.2999 14.1001 4.7999 13.8001C4.4999 13.6001 4.3999 13.2001 4.5999 12.9001C4.7999 12.6001 5.1999 12.5001 5.4999 12.7001C5.9999 13.0001 6.4999 13.2001 6.9999 13.3001C7.3999 13.4001 7.5999 13.7001 7.4999 14.1001C7.1999 14.3001 6.9999 14.5001 6.6999 14.5001ZM9.2999 14.5001C8.9999 14.5001 8.6999 14.3001 8.6999 14.0001C8.5999 13.7001 8.7999 13.3001 9.1999 13.2001C10.3999 12.9001 11.3999 12.3001 12.1999 11.3001C12.9999 10.4001 13.3999 9.20009 13.3999 8.00009C13.3999 6.80009 12.9999 5.60009 12.1999 4.70009C11.3999 3.80009 10.3999 3.10009 9.1999 2.80009C8.7999 2.70009 8.5999 2.40009 8.6999 2.00009C8.7999 1.60009 9.0999 1.40009 9.4999 1.50009C10.9999 1.80009 12.2999 2.70009 13.1999 3.80009C14.0999 5.00009 14.5999 6.50009 14.5999 8.00009C14.5999 9.50009 14.0999 11.0001 13.0999 12.1001C12.1999 13.3001 10.7999 14.1001 9.3999 14.4001C9.3999 14.5001 9.3999 14.5001 9.2999 14.5001ZM3.0999 12.0001C2.8999 12.0001 2.6999 11.9001 2.5999 11.7001C2.1999 11.1001 1.8999 10.5001 1.6999 9.80009C1.4999 9.50009 1.6999 9.10009 2.0999 9.00009C2.3999 8.90009 2.7999 9.10009 2.8999 9.40009C2.9999 10.0001 3.2999 10.6001 3.5999 11.0001C3.7999 11.3001 3.6999 11.7001 3.3999 11.9001C3.2999 12.0001 3.1999 12.0001 3.0999 12.0001ZM7.9999 10.7001C7.8999 10.7001 7.7999 10.7001 7.5999 10.6001C7.2999 10.4001 7.1999 10.0001 7.3999 9.70009L8.0999 8.70009H6.6999C6.4999 8.70009 6.1999 8.60009 6.0999 8.40009C5.9999 8.10009 5.9999 7.80009 6.0999 7.60009L7.3999 5.60009C7.5999 5.30009 7.9999 5.20009 8.2999 5.40009C8.5999 5.60009 8.6999 6.00009 8.4999 6.30009L7.7999 7.30009H9.2999C9.4999 7.30009 9.7999 7.40009 9.8999 7.60009C9.9999 7.80009 9.9999 8.10009 9.8999 8.30009L8.5999 10.3001C8.3999 10.5001 8.1999 10.7001 7.9999 10.7001ZM2.0999 7.60009H1.9999C1.5999 7.60009 1.3999 7.20009 1.3999 6.90009C1.4999 6.20009 1.6999 5.50009 2.0999 4.90009L2.1999 4.70009C2.3999 4.40009 2.7999 4.30009 3.0999 4.40009C3.3999 4.60009 3.4999 5.00009 3.3999 5.30009L3.2999 5.50009C2.9999 6.00009 2.7999 6.60009 2.6999 7.10009C2.6999 7.40009 2.3999 7.60009 2.0999 7.60009ZM4.5999 3.70009C4.3999 3.70009 4.1999 3.60009 4.0999 3.40009C3.8999 3.10009 3.8999 2.70009 4.1999 2.50009C4.8999 2.00009 5.6999 1.70009 6.4999 1.50009C6.8999 1.40009 7.1999 1.70009 7.2999 2.00009C7.3999 2.40009 7.1999 2.70009 6.7999 2.80009C6.1999 2.90009 5.4999 3.20009 4.9999 3.60009C4.8999 3.70009 4.6999 3.70009 4.5999 3.70009Z" fill="#71AFE8"/>
</g>
</g>
</svg>
