<svg width="24" height="24" viewBox="0 0 24 24" fill="none" xmlns="http://www.w3.org/2000/svg">
<path d="M8.9375 14.7H15.0625M8.9375 17.4H12M10.25 10.65L13.75 7.05M13.75 10.65L10.25 7.05M18.125 3H5.875C5.64294 3 5.42038 3.09482 5.25628 3.2636C5.09219 3.43239 5 3.66131 5 3.9V20.1C5 20.3387 5.09219 20.5676 5.25628 20.7364C5.42038 20.9052 5.64294 21 5.875 21H18.125C18.3571 21 18.5796 20.9052 18.7437 20.7364C18.9078 20.5676 19 20.3387 19 20.1V3.9C19 3.66131 18.9078 3.43239 18.7437 3.2636C18.5796 3.09482 18.3571 3 18.125 3Z" stroke="#9285EE" stroke-width="1.5" stroke-linecap="round" stroke-linejoin="round"/>
</svg>
