<svg width="24" height="24" viewBox="0 0 24 24" fill="none" xmlns="http://www.w3.org/2000/svg">
<path d="M9.96802 19.344L7.99858 20V11.5L3.51985 6.572C3.18539 6.20393 3.00005 5.7244 3 5.227V3H18.9955V5.172C18.9953 5.70239 18.7846 6.21101 18.4096 6.586L13.9969 11V12.5M17.4159 14.61C17.6109 14.415 17.8423 14.2603 18.097 14.1548C18.3518 14.0492 18.6248 13.9949 18.9005 13.9949C19.1762 13.9949 19.4492 14.0492 19.7039 14.1548C19.9587 14.2603 20.1901 14.415 20.3851 14.61C20.58 14.805 20.7347 15.0365 20.8402 15.2913C20.9457 15.5461 21 15.8192 21 16.095C21 16.3708 20.9457 16.6439 20.8402 16.8987C20.7347 17.1535 20.58 17.385 20.3851 17.58L16.996 21H13.9969V18L17.4159 14.61Z" stroke="#9285EE" stroke-width="2" stroke-linecap="round" stroke-linejoin="round"/>
</svg>
