<svg width="24" height="24" viewBox="0 0 24 24" fill="none" xmlns="http://www.w3.org/2000/svg">
<path fill-rule="evenodd" clip-rule="evenodd" d="M15.7207 7.1163C15.4123 7.1163 15.1166 7.2388 14.8985 7.45687C14.6805 7.67494 14.5579 7.9707 14.5579 8.27909C14.5579 8.58748 14.6805 8.88324 14.8985 9.1013C15.1166 9.31937 15.4123 9.44188 15.7207 9.44188C16.0291 9.44188 16.3249 9.31937 16.543 9.1013C16.761 8.88324 16.8835 8.58748 16.8835 8.27909C16.8835 7.9707 16.761 7.67494 16.543 7.45687C16.3249 7.2388 16.0291 7.1163 15.7207 7.1163ZM13.1626 8.27909C13.1626 7.60063 13.4321 6.94995 13.9119 6.47021C14.3916 5.99046 15.0423 5.72095 15.7207 5.72095C16.3992 5.72095 17.0499 5.99046 17.5296 6.47021C18.0094 6.94995 18.2789 7.60063 18.2789 8.27909C18.2789 8.95755 18.0094 9.60822 17.5296 10.088C17.0499 10.5677 16.3992 10.8372 15.7207 10.8372C15.0423 10.8372 14.3916 10.5677 13.9119 10.088C13.4321 9.60822 13.1626 8.95755 13.1626 8.27909Z" fill="#9285EE"/>
<path fill-rule="evenodd" clip-rule="evenodd" d="M11.947 2H12.053C14.2009 2 15.8837 2 17.1972 2.17674C18.5405 2.35721 19.6009 2.73488 20.4335 3.56651C21.266 4.39907 21.6428 5.45953 21.8233 6.80372C22 8.11628 22 9.79907 22 11.947V12.053C22 14.2009 22 15.8837 21.8233 17.1972C21.6428 18.5405 21.2651 19.6009 20.4335 20.4335C19.6009 21.266 18.5405 21.6428 17.1963 21.8233C15.8837 22 14.2009 22 12.053 22H11.947C9.79907 22 8.11628 22 6.80279 21.8233C5.45954 21.6428 4.39907 21.2651 3.56651 20.4335C2.73395 19.6009 2.35721 18.5405 2.17674 17.1963C2 15.8837 2 14.2009 2 12.053V11.947C2 9.79907 2 8.11628 2.17674 6.80279C2.35721 5.45954 2.73488 4.39907 3.56651 3.56651C4.39907 2.73395 5.45953 2.35721 6.80372 2.17674C8.11628 2 9.79907 2 11.947 2ZM4.55349 19.4465C4.02326 18.9163 3.71907 18.2 3.55907 17.0102C3.41674 15.9488 3.39814 14.5944 3.39535 12.7814L4.78605 11.5647C5.0613 11.3236 5.41789 11.1963 5.78356 11.2084C6.14922 11.2204 6.49662 11.3711 6.75535 11.6298L10.746 15.6205C11.1718 16.0464 11.7342 16.3085 12.3342 16.3606C12.9342 16.4126 13.5333 16.2514 14.026 15.9051L14.3033 15.7098C14.6909 15.4373 15.1595 15.3043 15.6324 15.3327C16.1054 15.3611 16.5547 15.5491 16.907 15.866L19.9051 18.5656C19.9374 18.594 19.9719 18.6199 20.0084 18.6428C19.8693 18.9414 19.6792 19.2134 19.4465 19.4465C18.9163 19.9767 18.2 20.2809 17.0102 20.4409C15.8009 20.6028 14.2121 20.6047 12 20.6047C9.78791 20.6047 8.19907 20.6028 6.98977 20.4409C5.8 20.2809 5.08372 19.9758 4.55349 19.4465ZM6.98977 3.55907C5.8 3.71907 5.08279 4.02419 4.55256 4.55349C4.02326 5.08372 3.71907 5.8 3.55907 6.98977C3.42419 7.99442 3.40093 9.25954 3.39628 10.9274L3.86791 10.5144C4.40965 10.0405 5.11126 9.79018 5.83064 9.81419C6.55002 9.8382 7.23339 10.1347 7.74233 10.6437L11.733 14.6344C11.9266 14.8277 12.1822 14.9465 12.4548 14.97C12.7273 14.9935 12.9994 14.9201 13.2233 14.7628L13.5005 14.5674C14.1466 14.1134 14.9277 13.892 15.7159 13.9395C16.5042 13.987 17.2531 14.3005 17.84 14.8288L20.4205 17.1516L20.4409 17.0102C20.6028 15.8009 20.6047 14.2121 20.6047 12C20.6047 9.78791 20.6028 8.19907 20.4409 6.98977C20.2809 5.8 19.9758 5.08279 19.4465 4.55256C18.9163 4.02326 18.2 3.71907 17.0102 3.55907C15.8009 3.39721 14.2121 3.39535 12 3.39535C9.78791 3.39535 8.19907 3.39721 6.98977 3.55907Z" fill="#9285EE"/>
</svg>
