<svg width="16" height="16" viewBox="0 0 16 16" fill="none" xmlns="http://www.w3.org/2000/svg">
<path d="M7.61929 2.06394C7.8669 1.97869 8.1331 1.97869 8.38071 2.06394L12.1307 3.35435C12.3831 3.44114 12.6033 3.61193 12.7596 3.84208C12.9158 4.07223 13 4.34982 13 4.63477V7.33848C13 8.54133 12.7714 9.78258 12.0693 10.9347C11.3671 12.0853 10.2229 13.0954 8.475 13.8958C8.32481 13.9645 8.16325 14 8 14C7.83675 14 7.67519 13.9645 7.525 13.8958C5.77714 13.0954 4.63286 12.0853 3.93071 10.9347C3.22857 9.78258 3 8.54133 3 7.33848V4.63477C2.99998 4.34982 3.08417 4.07223 3.24042 3.84208C3.39667 3.61193 3.61689 3.44114 3.86929 3.35435L7.61929 2.06394ZM8.055 3.16155C8.01947 3.14927 7.98125 3.14927 7.94571 3.16155L4.19571 4.45196C4.15965 4.46434 4.12818 4.48871 4.10585 4.52157C4.08351 4.55443 4.07145 4.59407 4.07143 4.63477V7.33848C4.07143 8.38156 4.26786 9.38624 4.82643 10.3033C5.38643 11.2205 6.34143 12.1007 7.945 12.8358C7.96239 12.8438 7.98109 12.8479 8 12.8479C8.01891 12.8479 8.03761 12.8438 8.055 12.8358C9.65857 12.1015 10.6136 11.2197 11.1736 10.3026C11.7321 9.38624 11.9286 8.3831 11.9286 7.33848V4.63477C11.9283 4.59423 11.9161 4.55481 11.8938 4.52213C11.8715 4.48945 11.8402 4.46517 11.8043 4.45273L8.05429 3.16232L8.055 3.16155ZM8.53571 5.61026V7.91456C8.53571 8.06734 8.47927 8.21387 8.37881 8.3219C8.27834 8.42994 8.14208 8.49063 8 8.49063C7.85792 8.49063 7.72166 8.42994 7.62119 8.3219C7.52073 8.21387 7.46429 8.06734 7.46429 7.91456V5.61026C7.46429 5.45747 7.52073 5.31095 7.62119 5.20291C7.72166 5.09488 7.85792 5.03418 8 5.03418C8.14208 5.03418 8.27834 5.09488 8.37881 5.20291C8.47927 5.31095 8.53571 5.45747 8.53571 5.61026ZM8.71429 10.0268C8.71429 10.2305 8.63903 10.4259 8.50508 10.57C8.37112 10.714 8.18944 10.7949 8 10.7949C7.81056 10.7949 7.62888 10.714 7.49492 10.57C7.36097 10.4259 7.28571 10.2305 7.28571 10.0268C7.28571 9.82312 7.36097 9.62775 7.49492 9.4837C7.62888 9.33966 7.81056 9.25873 8 9.25873C8.18944 9.25873 8.37112 9.33966 8.50508 9.4837C8.63903 9.62775 8.71429 9.82312 8.71429 10.0268Z" fill="#B7B6E0"/>
</svg>
