<svg width="24" height="24" viewBox="0 0 24 24" fill="none" xmlns="http://www.w3.org/2000/svg">
<path d="M21 19.8571V10.1429C21 9.96543 20.9593 9.79045 20.8812 9.63176C20.8031 9.47306 20.6897 9.33503 20.55 9.22857L12.675 3.22857C12.4803 3.0802 12.2434 3 12 3C11.7566 3 11.5197 3.0802 11.325 3.22857L3.45 9.22857C3.31028 9.33503 3.19688 9.47306 3.11877 9.63176C3.04066 9.79045 3 9.96543 3 10.1429V19.8571C3 20.1602 3.11853 20.4509 3.32951 20.6653C3.54048 20.8796 3.82663 21 4.125 21H8.625C8.92337 21 9.20952 20.8796 9.42049 20.6653C9.63147 20.4509 9.75 20.1602 9.75 19.8571V16.4286C9.75 16.1255 9.86853 15.8348 10.0795 15.6205C10.2905 15.4061 10.5766 15.2857 10.875 15.2857H13.125C13.4234 15.2857 13.7095 15.4061 13.9205 15.6205C14.1315 15.8348 14.25 16.1255 14.25 16.4286V19.8571C14.25 20.1602 14.3685 20.4509 14.5795 20.6653C14.7905 20.8796 15.0766 21 15.375 21H19.875C20.1734 21 20.4595 20.8796 20.6705 20.6653C20.8815 20.4509 21 20.1602 21 19.8571Z" stroke="#9285EE" stroke-width="2" stroke-linecap="round" stroke-linejoin="round"/>
</svg>
