<svg width="16" height="16" viewBox="0 0 16 16" fill="none" xmlns="http://www.w3.org/2000/svg">
<path d="M14.3123 13.8906C14.2088 13.9734 14.0766 14.0116 13.9449 13.997C13.8132 13.9823 13.6927 13.916 13.6098 13.8125C13.5242 13.7044 11.4998 11.1163 11.4998 6C11.4998 5.07174 11.1311 4.1815 10.4747 3.52513C9.81832 2.86875 8.92808 2.5 7.99982 2.5C7.07157 2.5 6.18133 2.86875 5.52495 3.52513C4.86857 4.1815 4.49982 5.07174 4.49982 6C4.49982 11.1163 2.4767 13.7044 2.39045 13.8125C2.34941 13.8638 2.29866 13.9066 2.2411 13.9383C2.18354 13.97 2.1203 13.9901 2.05498 13.9974C1.98966 14.0047 1.92354 13.999 1.8604 13.9808C1.79727 13.9625 1.73835 13.932 1.68701 13.8909C1.63567 13.8499 1.59292 13.7992 1.56119 13.7416C1.52947 13.684 1.50939 13.6208 1.50211 13.5555C1.49482 13.4901 1.50048 13.424 1.51874 13.3609C1.53701 13.2978 1.56754 13.2388 1.60857 13.1875C1.61795 13.175 2.0892 12.5687 2.5542 11.3912C2.98545 10.3 3.49982 8.4775 3.49982 6C3.49982 4.80653 3.97393 3.66193 4.81784 2.81802C5.66176 1.97411 6.80635 1.5 7.99982 1.5C9.1933 1.5 10.3379 1.97411 11.1818 2.81802C12.0257 3.66193 12.4998 4.80653 12.4998 6C12.4998 8.4775 13.0142 10.3 13.4454 11.3925C13.9129 12.5763 14.3867 13.1825 14.3917 13.1888C14.4741 13.2924 14.512 13.4245 14.4972 13.5561C14.4823 13.6877 14.4158 13.808 14.3123 13.8906ZM6.24982 6C6.10149 6 5.95648 6.04399 5.83315 6.1264C5.70981 6.20881 5.61368 6.32594 5.55691 6.46299C5.50015 6.60003 5.4853 6.75083 5.51424 6.89632C5.54317 7.0418 5.6146 7.17544 5.71949 7.28033C5.82438 7.38522 5.95802 7.45665 6.10351 7.48559C6.24899 7.51453 6.39979 7.49968 6.53684 7.44291C6.67388 7.38614 6.79102 7.29001 6.87343 7.16668C6.95584 7.04334 6.99982 6.89834 6.99982 6.75C6.99982 6.55109 6.92081 6.36032 6.78015 6.21967C6.6395 6.07902 6.44874 6 6.24982 6ZM10.4998 6.75C10.4998 6.60166 10.4558 6.45666 10.3734 6.33332C10.291 6.20999 10.1739 6.11386 10.0368 6.05709C9.89979 6.00032 9.74899 5.98547 9.60351 6.01441C9.45802 6.04335 9.32438 6.11478 9.21949 6.21967C9.1146 6.32456 9.04317 6.4582 9.01424 6.60368C8.9853 6.74917 9.00015 6.89997 9.05691 7.03701C9.11368 7.17406 9.20981 7.29119 9.33315 7.3736C9.45648 7.45601 9.60149 7.5 9.74982 7.5C9.94874 7.5 10.1395 7.42098 10.2802 7.28033C10.4208 7.13968 10.4998 6.94891 10.4998 6.75ZM6.22357 8.5525C6.10535 8.49634 5.96982 8.48878 5.84608 8.53144C5.72234 8.57409 5.62026 8.66357 5.56176 8.78065C5.50326 8.89774 5.493 9.03309 5.53319 9.15765C5.57338 9.28222 5.6608 9.38606 5.7767 9.44687L7.7767 10.4469C7.846 10.4818 7.92253 10.5 8.00014 10.5C8.07775 10.5 8.15428 10.4818 8.22357 10.4469L10.2236 9.44687C10.3422 9.38753 10.4323 9.28351 10.4742 9.15768C10.5162 9.03186 10.5064 8.89454 10.447 8.77594C10.3877 8.65734 10.2836 8.56717 10.1578 8.52526C10.032 8.48336 9.89468 8.49316 9.77607 8.5525L7.99982 9.44063L6.22357 8.5525ZM7.99982 11.5C7.39812 11.5048 6.80861 11.6702 6.29219 11.979C5.77578 12.2879 5.3512 12.729 5.06232 13.2569C5.0304 13.3143 5.0101 13.3775 5.00259 13.4428C4.99508 13.5081 5.0005 13.5742 5.01855 13.6374C5.0366 13.7006 5.06692 13.7597 5.10778 13.8112C5.14864 13.8626 5.19925 13.9056 5.2567 13.9375C5.31415 13.9694 5.37733 13.9897 5.44263 13.9972C5.50793 14.0047 5.57407 13.9993 5.63727 13.9813C5.70047 13.9632 5.7595 13.9329 5.81098 13.892C5.86246 13.8512 5.9054 13.8006 5.93732 13.7431C6.13595 13.3684 6.4329 13.0549 6.79628 12.8363C7.15966 12.6176 7.57574 12.5021 7.99982 12.5021C8.42391 12.5021 8.83999 12.6176 9.20337 12.8363C9.56675 13.0549 9.8637 13.3684 10.0623 13.7431C10.0943 13.8006 10.1372 13.8512 10.1887 13.892C10.2402 13.9329 10.2992 13.9632 10.3624 13.9813C10.4256 13.9993 10.4917 14.0047 10.557 13.9972C10.6223 13.9897 10.6855 13.9694 10.7429 13.9375C10.8004 13.9056 10.851 13.8626 10.8919 13.8112C10.9327 13.7597 10.963 13.7006 10.9811 13.6374C10.9991 13.5742 11.0046 13.5081 10.9971 13.4428C10.9896 13.3775 10.9693 13.3143 10.9373 13.2569C10.6484 12.729 10.2239 12.2879 9.70745 11.979C9.19104 11.6702 8.60153 11.5048 7.99982 11.5Z" fill="#B7B6E0"/>
</svg>
