<svg width="24" height="24" viewBox="0 0 24 24" fill="none" xmlns="http://www.w3.org/2000/svg">
<path d="M9.77778 4.14286H22V5.57143H9.77778V4.14286ZM2 4.85714C2 5.42223 2.17377 5.97463 2.49935 6.44449C2.82492 6.91434 3.28768 7.28055 3.82909 7.4968C4.3705 7.71305 4.96625 7.76963 5.54101 7.65939C6.11577 7.54914 6.64372 7.27703 7.05809 6.87745C7.47247 6.47787 7.75467 5.96878 7.86899 5.41454C7.98332 4.86031 7.92464 4.28584 7.70038 3.76376C7.47612 3.24169 7.09635 2.79546 6.6091 2.48152C6.12184 2.16757 5.54898 2 4.96296 2C4.17741 2.00085 3.42428 2.30214 2.86881 2.83778C2.31333 3.37341 2.00088 4.09964 2 4.85714ZM4.96296 3.42857C5.25597 3.42857 5.5424 3.51236 5.78603 3.66933C6.02966 3.8263 6.21954 4.04941 6.33167 4.31045C6.4438 4.57149 6.47314 4.85873 6.41598 5.13584C6.35881 5.41296 6.21772 5.66751 6.01053 5.8673C5.80334 6.06708 5.53936 6.20314 5.25199 6.25827C4.96461 6.31339 4.66673 6.2851 4.39602 6.17697C4.12532 6.06885 3.89394 5.88574 3.73116 5.65081C3.56837 5.41589 3.48148 5.13969 3.48148 4.85714C3.48192 4.47839 3.63815 4.11528 3.91588 3.84746C4.19362 3.57964 4.57018 3.429 4.96296 3.42857ZM9.77778 11.2857H22V12.7143H9.77778V11.2857ZM4.96296 14.8571C5.54898 14.8571 6.12184 14.6896 6.6091 14.3756C7.09635 14.0617 7.47612 13.6155 7.70038 13.0934C7.92464 12.5713 7.98332 11.9968 7.86899 11.4426C7.75467 10.8884 7.47247 10.3793 7.05809 9.97969C6.64372 9.58012 6.11577 9.308 5.54101 9.19776C4.96625 9.08751 4.3705 9.14409 3.82909 9.36034C3.28768 9.57659 2.82492 9.9428 2.49935 10.4127C2.17377 10.8825 2 11.4349 2 12C2.00088 12.7575 2.31333 13.4837 2.86881 14.0194C3.42428 14.555 4.17741 14.8563 4.96296 14.8571ZM4.96296 10.5714C5.25597 10.5714 5.5424 10.6552 5.78603 10.8122C6.02966 10.9692 6.21954 11.1923 6.33167 11.4533C6.4438 11.7143 6.47314 12.0016 6.41598 12.2787C6.35881 12.5558 6.21772 12.8104 6.01053 13.0102C5.80334 13.2099 5.53936 13.346 5.25199 13.4011C4.96461 13.4562 4.66673 13.428 4.39602 13.3198C4.12532 13.2117 3.89394 13.0286 3.73116 12.7937C3.56837 12.5587 3.48148 12.2825 3.48148 12C3.48192 11.6213 3.63815 11.2581 3.91588 10.9903C4.19362 10.7225 4.57018 10.5719 4.96296 10.5714ZM9.77778 18.4286H22V19.8571H9.77778V18.4286ZM4.96296 22C5.54898 22 6.12184 21.8324 6.6091 21.5185C7.09635 21.2045 7.47612 20.7583 7.70038 20.2362C7.92464 19.7142 7.98332 19.1397 7.86899 18.5855C7.75467 18.0312 7.47247 17.5221 7.05809 17.1226C6.64372 16.723 6.11577 16.4509 5.54101 16.3406C4.96625 16.2304 4.3705 16.287 3.82909 16.5032C3.28768 16.7195 2.82492 17.0857 2.49935 17.5555C2.17377 18.0254 2 18.5778 2 19.1429C2.00088 19.9004 2.31333 20.6266 2.86881 21.1622C3.42428 21.6979 4.17741 21.9991 4.96296 22ZM4.96296 17.7143C5.25597 17.7143 5.5424 17.7981 5.78603 17.955C6.02966 18.112 6.21954 18.3351 6.33167 18.5962C6.4438 18.8572 6.47314 19.1444 6.41598 19.4216C6.35881 19.6987 6.21772 19.9532 6.01053 20.153C5.80334 20.3528 5.53936 20.4889 5.25199 20.544C4.96461 20.5991 4.66673 20.5708 4.39602 20.4627C4.12532 20.3546 3.89394 20.1715 3.73116 19.9365C3.56837 19.7016 3.48148 19.4254 3.48148 19.1429C3.48192 18.7641 3.63815 18.401 3.91588 18.1332C4.19362 17.8654 4.57018 17.7147 4.96296 17.7143Z" fill="#9285EE"/>
</svg>
