<svg width="24" height="24" viewBox="0 0 24 24" fill="none" xmlns="http://www.w3.org/2000/svg">
<path d="M11.9999 8C12.9999 8 13.6999 8.3 13.8999 8.6C13.9999 8.7 13.9999 8.7 13.9999 8.8L13.5999 11.5C13.5999 11.6 13.4999 11.8 13.4999 11.9H12.7999L12.6999 12.8L12.2999 17H11.7999L11.3999 12.9L11.2999 12H10.5999C10.4999 11.9 10.4999 11.7 10.4999 11.6L9.9999 8.8C9.9999 8.7 9.9999 8.6 10.0999 8.6C10.2999 8.3 10.9999 8 11.9999 8ZM11.9999 7C10.3999 7 8.7999 7.6 8.9999 8.9L9.3999 11.7C9.4999 12.2 9.7999 13 10.2999 13L10.6999 17.7C10.6999 17.9 10.8999 18.1 11.0999 18.1H12.6999C12.8999 18.1 13.0999 17.9 13.0999 17.7L13.4999 13C13.9999 13 14.3999 12.2 14.3999 11.7L14.9999 8.9C15.0999 7.6 13.4999 7 11.9999 7Z" fill="#9285EE"/>
<path d="M12 3C12.6 3 13 3.4 13 4C13 4.6 12.6 5 12 5C11.4 5 11 4.6 11 4C11 3.4 11.4 3 12 3ZM12 2C10.9 2 10 2.9 10 4C10 5.1 10.9 6 12 6C13.1 6 14 5.1 14 4C14 2.9 13.1 2 12 2Z" fill="#9285EE"/>
<path d="M10.6 21.7L10.7 20.4H10.4C7 20.1999 5.1 19.1999 4.9 18.4V18.2H2.5L2.7 17.9H5.2L5.3 17.7999C5.9 17.0999 7.6 16.5999 9.7 16.2999C8.7 16.4999 6.8 16.9 6.5 17.9C6.4 18.1 6.5 18.3 6.6 18.5C7.4 19.6 11.9 19.7 12.1 19.7H12.3C14.1 19.7 17 19.4 17.7 18.5C17.9 18.3 17.9 18.1 17.9 17.9C17.7 16.9 15.7 16.4 14.7 16.2C16.8 16.4 18.5 17 19.1 17.7L19.2 17.7999H21.7L21.8 18.1H19.4L19.3 18.2999C19.1 19.0999 17.1 19.9999 13.7 20.2999H13.4V21.6H10.6V21.7Z" fill="#9285EE"/>
</svg>
