<svg width="24" height="24" viewBox="0 0 24 24" fill="none" xmlns="http://www.w3.org/2000/svg">
<path d="M18.219 3.94406C18.872 4.45603 19.322 5.28297 19.506 6.14891C19.5283 6.15597 19.55 6.16466 19.571 6.17491L21.616 7.12085C21.7303 7.17333 21.8272 7.25743 21.8952 7.36321C21.9633 7.46899 21.9996 7.59204 22 7.71781V20.084C21.9993 20.1867 21.9747 20.2879 21.9284 20.3795C21.882 20.4712 21.815 20.5508 21.7326 20.6123C21.6503 20.6737 21.5548 20.7152 21.4537 20.7335C21.3526 20.7519 21.2487 20.7465 21.15 20.7179L15.481 19.1181L8.741 20.9759C8.6194 21.0093 8.49086 21.0079 8.37 20.9719L2.474 19.217C2.33772 19.177 2.21799 19.0941 2.1326 18.9806C2.0472 18.8671 2.0007 18.7291 2 18.5871V5.99892C2 5.55895 2.428 5.24297 2.855 5.36697L8.557 7.02786L11.455 6.14091C11.4949 6.12914 11.5357 6.12078 11.577 6.11592C11.689 5.45996 12.002 4.83 12.527 4.21604C13.15 3.48609 14.243 3.05812 15.308 3.00712C16.413 2.95413 17.257 3.19011 18.218 3.94306L18.219 3.94406ZM3.333 6.88187V18.0961L8.203 19.545V8.29877L3.333 6.88187ZM11.542 7.49582L9.536 8.10878V19.387L14.601 17.9931V14.6983C14.601 14.3344 14.9 14.0394 15.268 14.0394C15.636 14.0394 15.934 14.3344 15.934 14.6993V17.8761L20.667 19.2111V8.13678L19.547 7.61682C19.528 7.72681 19.504 7.8348 19.474 7.9398C19.2565 8.7065 18.8917 9.42349 18.4 10.0507L15.923 13.1434C15.8578 13.2248 15.7745 13.2897 15.6797 13.3332C15.585 13.3767 15.4814 13.3975 15.3772 13.3939C15.273 13.3903 15.1711 13.3624 15.0796 13.3125C14.9881 13.2626 14.9095 13.1921 14.85 13.1065L12.535 9.75368C12.153 9.21971 11.885 8.74374 11.734 8.31777C11.6392 8.0519 11.5748 7.77617 11.542 7.49582ZM15.372 4.32503C14.646 4.36003 13.9 4.65201 13.545 5.06699C13.118 5.56695 12.908 6.03492 12.866 6.50889C12.816 7.07985 12.85 7.48283 12.992 7.8818C13.097 8.17678 13.306 8.55075 13.629 9.00172L15.44 11.6236L17.35 9.23871C17.7353 8.7463 18.021 8.18351 18.191 7.58182C18.431 6.74187 18.069 5.50796 17.391 4.97799C16.696 4.43303 16.171 4.28604 15.373 4.32503H15.372ZM15.51 5.02199C16.614 5.02199 17.51 5.90693 17.51 6.99886C17.5086 7.25999 17.4557 7.51829 17.3544 7.75898C17.2531 7.99968 17.1053 8.21805 16.9196 8.40164C16.7339 8.58522 16.5138 8.73041 16.2719 8.82892C16.0301 8.92742 15.7712 8.97731 15.51 8.97573C14.406 8.97573 13.51 8.09079 13.51 6.99886C13.51 5.90693 14.406 5.02199 15.51 5.02199ZM15.51 6.3399C15.4229 6.33938 15.3366 6.356 15.256 6.38883C15.1753 6.42166 15.102 6.47006 15.04 6.53125C14.9781 6.59244 14.9288 6.66523 14.895 6.74546C14.8612 6.82569 14.8435 6.9118 14.843 6.99886C14.843 7.36283 15.142 7.65781 15.51 7.65781C15.5971 7.65821 15.6834 7.64145 15.7639 7.6085C15.8445 7.57555 15.9178 7.52704 15.9797 7.46576C16.0415 7.40448 16.0907 7.33162 16.1244 7.25133C16.1581 7.17105 16.1756 7.08492 16.176 6.99786C16.1747 6.82238 16.1038 6.65458 15.979 6.53125C15.8541 6.40791 15.6855 6.3391 15.51 6.3399Z" fill="#9285EE"/>
</svg>
