<svg width="24" height="24" viewBox="0 0 24 24" fill="none" xmlns="http://www.w3.org/2000/svg">
<path d="M11.875 20C11.9417 20 12.0083 19.9833 12.075 19.95C12.1417 19.9167 12.1917 19.8833 12.225 19.85L20.425 11.65C20.625 11.45 20.771 11.225 20.863 10.975C20.955 10.725 21.0007 10.475 21 10.225C21 9.95833 20.954 9.704 20.862 9.462C20.77 9.22 20.6243 9.00767 20.425 8.825L16.175 4.575C15.9917 4.375 15.779 4.229 15.537 4.137C15.295 4.045 15.0413 3.99933 14.776 4C14.526 4 14.276 4.046 14.026 4.138C13.776 4.23 13.551 4.37567 13.351 4.575L13.076 4.85L14.926 6.725C15.176 6.95833 15.3593 7.225 15.476 7.525C15.5927 7.825 15.651 8.14167 15.651 8.475C15.651 9.175 15.4137 9.76267 14.939 10.238C14.4643 10.7133 13.8767 10.9507 13.176 10.95C12.8427 10.95 12.5217 10.8917 12.213 10.775C11.9043 10.6583 11.6337 10.4833 11.401 10.25L9.52499 8.4L5.14999 12.775C5.09999 12.825 5.06232 12.8793 5.03699 12.938C5.01166 12.9967 4.99932 13.0587 4.99999 13.124C4.99999 13.2573 5.04999 13.3783 5.14999 13.487C5.24999 13.5957 5.36666 13.6497 5.49999 13.649C5.56666 13.649 5.63332 13.6323 5.69999 13.599C5.76666 13.5657 5.81666 13.5323 5.84999 13.499L9.24999 10.099L10.65 11.499L7.27499 14.899C7.22499 14.949 7.18732 15.0033 7.16199 15.062C7.13666 15.1207 7.12432 15.183 7.12499 15.249C7.12499 15.3823 7.17499 15.499 7.27499 15.599C7.37499 15.699 7.49166 15.749 7.62499 15.749C7.69166 15.749 7.75832 15.7323 7.82499 15.699C7.89166 15.6657 7.94166 15.6323 7.97499 15.599L11.375 12.224L12.775 13.624L9.39999 17.024C9.34999 17.0573 9.31232 17.1073 9.28699 17.174C9.26166 17.2407 9.24932 17.3073 9.24999 17.374C9.24999 17.5073 9.29999 17.624 9.39999 17.724C9.49999 17.824 9.61666 17.874 9.74999 17.874C9.81666 17.874 9.87932 17.8613 9.93799 17.836C9.99666 17.8107 10.0507 17.7733 10.1 17.724L13.5 14.349L14.9 15.749L11.5 19.149C11.45 19.199 11.4123 19.253 11.387 19.311C11.3617 19.369 11.3493 19.4317 11.35 19.499C11.35 19.6323 11.4043 19.749 11.513 19.849C11.6217 19.949 11.7423 20 11.875 20ZM11.85 22C11.2333 22 10.6873 21.7957 10.212 21.387C9.73666 20.9783 9.45766 20.466 9.37499 19.85C8.80832 19.7667 8.33332 19.5333 7.94999 19.15C7.56666 18.7667 7.33332 18.2917 7.24999 17.725C6.68332 17.6417 6.21232 17.404 5.83699 17.012C5.46166 16.62 5.23266 16.1493 5.14999 15.6C4.51666 15.5167 3.99999 15.2417 3.59999 14.775C3.19999 14.3083 2.99999 13.7583 2.99999 13.125C2.99999 12.7917 3.06266 12.471 3.18799 12.163C3.31332 11.855 3.49232 11.584 3.72499 11.35L9.52499 5.575L12.8 8.85C12.8333 8.9 12.8833 8.93767 12.95 8.963C13.0167 8.98833 13.0833 9.00067 13.15 9C13.3 9 13.425 8.95433 13.525 8.863C13.625 8.77167 13.675 8.65067 13.675 8.5C13.675 8.43333 13.6623 8.36667 13.637 8.3C13.6117 8.23333 13.5743 8.18333 13.525 8.15L9.94999 4.575C9.76666 4.375 9.55432 4.229 9.31299 4.137C9.07166 4.045 8.81732 3.99933 8.54999 4C8.29999 4 8.04999 4.046 7.79999 4.138C7.54999 4.23 7.32499 4.37567 7.12499 4.575L3.59999 8.125C3.44999 8.275 3.32499 8.45 3.22499 8.65C3.12499 8.85 3.05832 9.05 3.02499 9.25C2.99166 9.45 2.99166 9.65433 3.02499 9.863C3.05832 10.0717 3.12499 10.2673 3.22499 10.45L1.77499 11.9C1.49166 11.5167 1.28332 11.096 1.14999 10.638C1.01666 10.18 0.966657 9.71733 0.99999 9.25C1.03332 8.78333 1.14999 8.329 1.34999 7.887C1.54999 7.445 1.82499 7.04933 2.17499 6.7L5.69999 3.175C6.09999 2.79167 6.54599 2.5 7.03799 2.3C7.52999 2.1 8.03399 2 8.54999 2C9.06666 2 9.57099 2.1 10.063 2.3C10.555 2.5 10.9923 2.79167 11.375 3.175L11.65 3.45L11.925 3.175C12.325 2.79167 12.771 2.5 13.263 2.3C13.755 2.1 14.259 2 14.775 2C15.2917 2 15.796 2.1 16.288 2.3C16.78 2.5 17.2173 2.79167 17.6 3.175L21.825 7.4C22.2083 7.78333 22.5 8.225 22.7 8.725C22.9 9.225 23 9.73333 23 10.25C23 10.7667 22.9 11.271 22.7 11.763C22.5 12.255 22.2083 12.6923 21.825 13.075L13.625 21.25C13.3917 21.4833 13.1207 21.6667 12.812 21.8C12.5033 21.9333 12.1827 22 11.85 22Z" fill="#ACACAC"/>
</svg>
