<svg width="16" height="16" viewBox="0 0 16 16" fill="none" xmlns="http://www.w3.org/2000/svg">
<path d="M3.2 13C2.87 13 2.5874 12.8775 2.3522 12.6325C2.117 12.3875 1.9996 12.0933 2 11.75V4.25C2 3.90625 2.1176 3.61188 2.3528 3.36688C2.588 3.12188 2.8704 2.99958 3.2 3H12.8C13.13 3 13.4126 3.1225 13.6478 3.3675C13.883 3.6125 14.0004 3.90667 14 4.25V11.75C14 12.0937 13.8824 12.3881 13.6472 12.6331C13.412 12.8781 13.1296 13.0004 12.8 13H3.2ZM3.2 11.75H9.2V4.25H3.2V11.75ZM10.4 11.75H12.8V4.25H10.4V11.75ZM11 6.125H12.2V4.875H11V6.125ZM11.6 8.625C11.77 8.625 11.9126 8.565 12.0278 8.445C12.143 8.325 12.2004 8.17667 12.2 8C12.2 7.82292 12.1424 7.67438 12.0272 7.55438C11.912 7.43438 11.7696 7.37458 11.6 7.375C11.43 7.375 11.2874 7.435 11.1722 7.555C11.057 7.675 10.9996 7.82333 11 8C11 8.17708 11.0576 8.32563 11.1728 8.44563C11.288 8.56563 11.4304 8.62542 11.6 8.625ZM11.6 11.125C11.77 11.125 11.9126 11.065 12.0278 10.945C12.143 10.825 12.2004 10.6767 12.2 10.5C12.2 10.3229 12.1424 10.1744 12.0272 10.0544C11.912 9.93437 11.7696 9.87458 11.6 9.875C11.43 9.875 11.2874 9.935 11.1722 10.055C11.057 10.175 10.9996 10.3233 11 10.5C11 10.6771 11.0576 10.8256 11.1728 10.9456C11.288 11.0656 11.4304 11.1254 11.6 11.125ZM6.95 10.5C6.71 10.5 6.5024 10.4531 6.3272 10.3594C6.152 10.2656 5.9996 10.1771 5.87 10.0938C5.77 10.0208 5.69 9.96625 5.63 9.93C5.57 9.89375 5.51 9.87542 5.45 9.875C5.34 9.875 5.23 9.92188 5.12 10.0156C5.01 10.1094 4.93 10.1875 4.88 10.25L4.025 9.375C4.135 9.25 4.3126 9.09375 4.5578 8.90625C4.803 8.71875 5.1004 8.625 5.45 8.625C5.69 8.625 5.8976 8.67458 6.0728 8.77375C6.248 8.87292 6.4004 8.96396 6.53 9.04688C6.62 9.10938 6.7 9.15896 6.77 9.19563C6.84 9.23229 6.9 9.25042 6.95 9.25C7.06 9.25 7.17 9.20312 7.28 9.10938C7.39 9.01562 7.47 8.9375 7.52 8.875L8.375 9.75C8.265 9.875 8.0876 10.0312 7.8428 10.2188C7.598 10.4062 7.3004 10.5 6.95 10.5ZM6.95 7.375C6.71 7.375 6.5024 7.32812 6.3272 7.23438C6.152 7.14062 5.9996 7.05208 5.87 6.96875C5.77 6.89583 5.69 6.84125 5.63 6.805C5.57 6.76875 5.51 6.75042 5.45 6.75C5.34 6.75 5.23 6.79688 5.12 6.89063C5.01 6.98438 4.93 7.0625 4.88 7.125L4.025 6.25C4.135 6.125 4.3126 5.96875 4.5578 5.78125C4.803 5.59375 5.1004 5.5 5.45 5.5C5.69 5.5 5.8976 5.54958 6.0728 5.64875C6.248 5.74792 6.4004 5.83896 6.53 5.92188C6.62 5.98438 6.7 6.03396 6.77 6.07063C6.84 6.10729 6.9 6.12542 6.95 6.125C7.06 6.125 7.17 6.07813 7.28 5.98438C7.39 5.89063 7.47 5.8125 7.52 5.75L8.375 6.625C8.265 6.75 8.0876 6.90625 7.8428 7.09375C7.598 7.28125 7.3004 7.375 6.95 7.375Z" fill="#B7B6E0"/>
</svg>
