<svg width="24" height="24" viewBox="0 0 24 24" fill="none" xmlns="http://www.w3.org/2000/svg">
<path d="M9.69995 14.7C10.6 14.7 11.5 14.3 12.2 13.6C12.9 12.9 13.2 12 13.2 11V5.6C13.2 4.6 12.8 3.7 12.2 3C11.6 2.4 10.7 2 9.69995 2C8.69995 2 7.89995 2.4 7.29995 3.1C6.59995 3.8 6.29995 4.7 6.29995 5.7V11.2C6.29995 12.2 6.69995 13.1 7.29995 13.8C7.89995 14.3 8.79995 14.7 9.69995 14.7ZM7.99995 5.6C7.99995 5.1 8.19995 4.7 8.49995 4.3C8.79995 4 9.29995 3.8 9.69995 3.8C10.1 3.8 10.7 4 11 4.4C11.3 4.7 11.5 5.2 11.5 5.7V11.2C11.5 11.7 11.3 12.1 11 12.5C10.7 12.8 10.2 13 9.79995 13C9.39995 13 8.89995 12.8 8.59995 12.5C8.19995 12 7.99995 11.6 7.99995 11.1V5.6ZM16.7 11.1C16.7 10.9 16.6 10.6 16.4 10.5C16.2 10.4 16 10.2 15.8 10.2C15.6 10.2 15.3 10.3 15.2 10.5C15.1 10.7 15 10.8 15 11.1C15 12.5 14.4 13.9 13.5 15C12.5 16 11.2 16.6 9.79995 16.6C8.39995 16.6 6.99995 16 5.99995 14.9C4.99995 13.9 4.49995 12.5 4.49995 11C4.49995 10.8 4.39995 10.5 4.19995 10.4C3.99995 10.2 3.79995 10.1 3.59995 10.1C3.39995 10.1 3.19995 10.3 2.99995 10.4C2.79995 10.6 2.69995 10.8 2.69995 11C2.69995 12.8 3.29995 14.5 4.49995 15.8C5.59995 17.1 7.19995 18 8.89995 18.2V20.1H7.09995C6.89995 20.1 6.59995 20.2 6.49995 20.4C6.29995 20.6 6.19995 20.8 6.19995 21C6.19995 21.2 6.29995 21.5 6.49995 21.6C6.69995 21.9 6.89995 22 7.09995 22H12.4C12.6 22 12.9 21.9 13 21.7C13.1 21.5 13.3 21.3 13.3 21.1C13.3 20.9 13.2 20.6 13 20.5C12.8 20.3 12.6 20.2 12.4 20.2H10.6V18.3C12.3 18.1 13.8 17.2 15 15.9C16.1 14.6 16.7 12.9 16.7 11.1Z" fill="#9285EE"/>
<path d="M21 6.3C21.1 6.4 21.2 6.5 21.2 6.6C21.2 6.7 21.3 6.9 21.3 7C21.3 7.1 21.3 7.3 21.2 7.4C21.1 7.5 21 7.6 21 7.7C21 7.8 20.8 7.9 20.7 7.9C20.5 8 20.4 8 20.2 8C20.1 8 19.9 8 19.8 7.9C19.7 7.8 19.6 7.8 19.5 7.7L18.2 6.4L17 7.7C16.8 7.9 16.5 8 16.2 8C15.9 8 15.7 7.9 15.5 7.7C15.3 7.5 15.2 7.3 15.2 7C15.2 6.7 15.3 6.5 15.5 6.3L16.8 5L15.5 3.7C15.3 3.5 15.2 3.3 15.2 3C15.2 2.7 15.3 2.5 15.5 2.3C15.7 2.1 16 2 16.2 2C16.5 2 16.7 2.1 16.9 2.3L18.2 3.6L19.5 2.3C19.7 2.1 20 2 20.2 2C20.5 2 20.7 2.1 20.9 2.3C21.1 2.5 21.2 2.7 21.2 3C21.2 3.3 21.1 3.5 20.9 3.7L19.7 5L21 6.3Z" fill="#9285EE"/>
</svg>
