<svg width="12" height="12" viewBox="0 0 12 12" fill="none" xmlns="http://www.w3.org/2000/svg">
<path d="M9.75008 4.77067C9.79592 4.77067 9.83342 4.73317 9.83342 4.68734V4.06234C9.83342 4.0165 9.79592 3.979 9.75008 3.979H8.04175V2.24984C8.04175 2.204 8.00425 2.1665 7.95842 2.1665H7.29175C7.24591 2.1665 7.20842 2.204 7.20842 2.24984V3.979H4.83341V2.24984C4.83341 2.204 4.79591 2.1665 4.75008 2.1665H4.08341C4.03758 2.1665 4.00008 2.204 4.00008 2.24984V3.979H2.25008C2.20425 3.979 2.16675 4.0165 2.16675 4.06234V4.68734C2.16675 4.73317 2.20425 4.77067 2.25008 4.77067H4.00008V7.229H2.25008C2.20425 7.229 2.16675 7.2665 2.16675 7.31234V7.93734C2.16675 7.98317 2.20425 8.02067 2.25008 8.02067H4.00008V9.74984C4.00008 9.79567 4.03758 9.83317 4.08341 9.83317H4.75008C4.79591 9.83317 4.83341 9.79567 4.83341 9.74984V8.02067H7.20842V9.74984C7.20842 9.79567 7.24591 9.83317 7.29175 9.83317H7.95842C8.00425 9.83317 8.04175 9.79567 8.04175 9.74984V8.02067H9.75008C9.79592 8.02067 9.83342 7.98317 9.83342 7.93734V7.31234C9.83342 7.2665 9.79592 7.229 9.75008 7.229H8.04175V4.77067H9.75008ZM7.20842 7.229H4.83341V4.77067H7.20842V7.229Z" fill="#9285EE"/>
</svg>
