<svg width="24" height="24" viewBox="0 0 24 24" fill="none" xmlns="http://www.w3.org/2000/svg">
<path d="M20.4 3.1C20 2.7 19.5 2.5 19 2.5H16.5V2C16.5 1.4 16.1 1 15.5 1H8.5C7.9 1 7.5 1.4 7.5 2V2.5H5C4.5 2.5 4 2.7 3.6 3.1C3.2 3.5 3 4 3 4.5V21C3 21.5 3.2 22 3.6 22.4C4 22.8 4.5 23 5 23H19C19.5 23 20 22.8 20.4 22.4C20.8 22 21 21.5 21 21V4.5C21 4 20.8 3.5 20.4 3.1ZM9.5 3H14.5V3.5V4H9.5V3.5V3ZM19 21H5V4.5H7.5V5C7.5 5.6 7.9 6 8.5 6H15.5C16.1 6 16.5 5.6 16.5 5V4.5H19V21Z" fill="#9285EE"/>
<path d="M14.4999 12.5H11.8999L14.1999 10.2C14.5999 9.8 14.5999 9.2 14.1999 8.8C13.7999 8.4 13.1999 8.4 12.7999 8.8L8.7999 12.8C8.4999 13.1 8.3999 13.5 8.5999 13.9C8.7999 14.3 9.0999 14.5 9.4999 14.5H12.0999L9.7999 16.8C9.3999 17.2 9.3999 17.8 9.7999 18.2C9.9999 18.4 10.2999 18.5 10.4999 18.5C10.6999 18.5 10.9999 18.4 11.1999 18.2L15.1999 14.2C15.4999 13.9 15.5999 13.5 15.3999 13.1C15.2999 12.7 14.8999 12.5 14.4999 12.5Z" fill="#9285EE"/>
</svg>
