<svg width="16" height="16" viewBox="0 0 16 16" fill="none" xmlns="http://www.w3.org/2000/svg">
<path d="M1.5 3.75C1.5 3.15326 1.73705 2.58097 2.15901 2.15901C2.58097 1.73705 3.15326 1.5 3.75 1.5H12.25C12.8467 1.5 13.419 1.73705 13.841 2.15901C14.2629 2.58097 14.5 3.15326 14.5 3.75V12.25C14.5 12.8467 14.2629 13.419 13.841 13.841C13.419 14.2629 12.8467 14.5 12.25 14.5H3.75C3.15326 14.5 2.58097 14.2629 2.15901 13.841C1.73705 13.419 1.5 12.8467 1.5 12.25V3.75ZM13.5 3.75C13.5 3.41848 13.3683 3.10054 13.1339 2.86612C12.8995 2.6317 12.5815 2.5 12.25 2.5H3.75C3.41848 2.5 3.10054 2.6317 2.86612 2.86612C2.6317 3.10054 2.5 3.41848 2.5 3.75V5.5H13.5V3.75ZM13.5 12.25V6.5H2.5V12.25C2.5 12.5815 2.6317 12.8995 2.86612 13.1339C3.10054 13.3683 3.41848 13.5 3.75 13.5H12.25C12.5815 13.5 12.8995 13.3683 13.1339 13.1339C13.3683 12.8995 13.5 12.5815 13.5 12.25ZM5 4.75C5.19891 4.75 5.38968 4.67098 5.53033 4.53033C5.67098 4.38968 5.75 4.19891 5.75 4C5.75 3.80109 5.67098 3.61032 5.53033 3.46967C5.38968 3.32902 5.19891 3.25 5 3.25C4.80109 3.25 4.61032 3.32902 4.46967 3.46967C4.32902 3.61032 4.25 3.80109 4.25 4C4.25 4.19891 4.32902 4.38968 4.46967 4.53033C4.61032 4.67098 4.80109 4.75 5 4.75ZM8 4.75C8.19891 4.75 8.38968 4.67098 8.53033 4.53033C8.67098 4.38968 8.75 4.19891 8.75 4C8.75 3.80109 8.67098 3.61032 8.53033 3.46967C8.38968 3.32902 8.19891 3.25 8 3.25C7.80109 3.25 7.61032 3.32902 7.46967 3.46967C7.32902 3.61032 7.25 3.80109 7.25 4C7.25 4.19891 7.32902 4.38968 7.46967 4.53033C7.61032 4.67098 7.80109 4.75 8 4.75ZM11.75 4C11.75 4.19891 11.671 4.38968 11.5303 4.53033C11.3897 4.67098 11.1989 4.75 11 4.75C10.8011 4.75 10.6103 4.67098 10.4697 4.53033C10.329 4.38968 10.25 4.19891 10.25 4C10.25 3.80109 10.329 3.61032 10.4697 3.46967C10.6103 3.32902 10.8011 3.25 11 3.25C11.1989 3.25 11.3897 3.32902 11.5303 3.46967C11.671 3.61032 11.75 3.80109 11.75 4ZM4.5 11.5V8.5H11.5V11.5H4.5ZM4.25 7.5C4.05109 7.5 3.86032 7.57902 3.71967 7.71967C3.57902 7.86032 3.5 8.05109 3.5 8.25V11.75C3.5 11.9489 3.57902 12.1397 3.71967 12.2803C3.86032 12.421 4.05109 12.5 4.25 12.5H11.75C11.9489 12.5 12.1397 12.421 12.2803 12.2803C12.421 12.1397 12.5 11.9489 12.5 11.75V8.25C12.5 8.05109 12.421 7.86032 12.2803 7.71967C12.1397 7.57902 11.9489 7.5 11.75 7.5H4.25Z" fill="#B7B6E0"/>
</svg>
