<svg width="16" height="16" viewBox="0 0 16 16" fill="none" xmlns="http://www.w3.org/2000/svg">
<path d="M12.5 1.75H10C9.66848 1.75 9.35054 1.8817 9.11612 2.11612C8.8817 2.35054 8.75 2.66848 8.75 3V13C8.75 13.3315 8.8817 13.6495 9.11612 13.8839C9.35054 14.1183 9.66848 14.25 10 14.25H12.5C12.8315 14.25 13.1495 14.1183 13.3839 13.8839C13.6183 13.6495 13.75 13.3315 13.75 13V3C13.75 2.66848 13.6183 2.35054 13.3839 2.11612C13.1495 1.8817 12.8315 1.75 12.5 1.75ZM12.25 12.75H10.25V3.25H12.25V12.75ZM6 1.75H3.5C3.16848 1.75 2.85054 1.8817 2.61612 2.11612C2.3817 2.35054 2.25 2.66848 2.25 3V13C2.25 13.3315 2.3817 13.6495 2.61612 13.8839C2.85054 14.1183 3.16848 14.25 3.5 14.25H6C6.33152 14.25 6.64946 14.1183 6.88388 13.8839C7.1183 13.6495 7.25 13.3315 7.25 13V3C7.25 2.66848 7.1183 2.35054 6.88388 2.11612C6.64946 1.8817 6.33152 1.75 6 1.75ZM5.75 12.75H3.75V3.25H5.75V12.75Z" fill="#9285EE"/>
</svg>
