<svg width="16" height="16" viewBox="0 0 16 16" fill="none" xmlns="http://www.w3.org/2000/svg">
<g clip-path="url(#clip0_2864_8916)">
<path d="M11.6926 6.99081L9.61424 6.05948L9.60851 6.05684C9.50061 6.01069 9.38291 5.99217 9.26605 6.00295C9.1492 6.01374 9.03687 6.05349 8.93924 6.1186C8.92775 6.12619 8.9167 6.13444 8.90616 6.14331L7.83233 7.05875C7.15204 6.72831 6.44968 6.03125 6.11924 5.35978L7.03601 4.26963C7.04483 4.2586 7.05321 4.24757 7.06116 4.23566C7.12487 4.13829 7.16353 4.02668 7.17369 3.91077C7.18385 3.79485 7.1652 3.67822 7.11939 3.57125V3.56595L6.18542 1.48404C6.12486 1.34431 6.02074 1.2279 5.88859 1.15221C5.75644 1.07651 5.60335 1.04558 5.45218 1.06404C4.85438 1.14271 4.30565 1.43629 3.90848 1.88997C3.51131 2.34364 3.29287 2.92638 3.29395 3.52934C3.29395 7.03228 6.14395 9.88228 9.64689 9.88228C10.2499 9.88336 10.8326 9.66492 11.2863 9.26775C11.7399 8.87058 12.0335 8.32185 12.1122 7.72404C12.1307 7.57292 12.0998 7.41988 12.0242 7.28773C11.9486 7.15559 11.8323 7.05144 11.6926 6.99081ZM9.64689 9.1764C8.1497 9.17476 6.7143 8.57928 5.65562 7.5206C4.59695 6.46193 4.00147 5.02653 3.99983 3.52934C3.99817 3.09852 4.15338 2.68183 4.43648 2.35709C4.71958 2.03234 5.1112 1.82175 5.53821 1.76463C5.53804 1.76639 5.53804 1.76816 5.53821 1.76993L6.46468 3.84345L5.55277 4.93493C5.54352 4.94558 5.53511 4.95693 5.52763 4.9689C5.46124 5.07077 5.42229 5.18807 5.41456 5.30942C5.40683 5.43078 5.43058 5.55207 5.48351 5.66154C5.88321 6.47904 6.70689 7.29654 7.53321 7.69581C7.64349 7.74824 7.76549 7.77117 7.88728 7.76235C8.00907 7.75354 8.12649 7.71328 8.22807 7.64551C8.23939 7.63788 8.25029 7.62964 8.26071 7.62081L9.33321 6.70581L11.4067 7.63448H11.4116C11.3552 8.0621 11.1449 8.45451 10.8201 8.73831C10.4953 9.02211 10.0782 9.17785 9.64689 9.1764Z" fill="#9FE89C"/>
<path d="M9.64707 12.3812C9.61753 12.3491 9.582 12.3231 9.5425 12.3049C9.50301 12.2866 9.46033 12.2764 9.41691 12.2747C9.37348 12.2731 9.33016 12.28 9.28941 12.2953C9.24866 12.3105 9.21129 12.3336 9.17943 12.3634L7.52943 13.931L5.87943 12.3634C5.84756 12.3336 5.81019 12.3105 5.76944 12.2953C5.7287 12.28 5.68537 12.2731 5.64195 12.2747C5.59852 12.2764 5.55585 12.2866 5.51636 12.3049C5.47686 12.3232 5.44133 12.3491 5.41178 12.3812C5.38223 12.4133 5.35925 12.4509 5.34415 12.492C5.32904 12.533 5.32211 12.5767 5.32375 12.6204C5.32539 12.6642 5.33557 12.7072 5.3537 12.7469C5.37183 12.7867 5.39756 12.8225 5.42943 12.8523L7.30443 14.6301C7.36561 14.6872 7.44598 14.719 7.52943 14.719C7.61288 14.719 7.69324 14.6872 7.75443 14.6301L9.62943 12.8523C9.6613 12.8225 9.68703 12.7867 9.70517 12.7469C9.7233 12.7072 9.73348 12.6642 9.73512 12.6204C9.73676 12.5767 9.72982 12.533 9.71472 12.492C9.69961 12.4509 9.67663 12.4133 9.64707 12.3812Z" fill="#9FE89C"/>
</g>
<defs>
<clipPath id="clip0_2864_8916">
<rect width="15.0588" height="16" fill="white"/>
</clipPath>
</defs>
</svg>
