<svg width="16" height="16" viewBox="0 0 16 16" fill="none" xmlns="http://www.w3.org/2000/svg">
<path d="M12.643 5.08333H11.8571V3.41667C11.8571 3.30616 11.812 3.20018 11.7316 3.12204C11.6512 3.0439 11.5422 3 11.4286 3H4.57143C4.45776 3 4.34876 3.0439 4.26838 3.12204C4.18801 3.20018 4.14286 3.30616 4.14286 3.41667V5.08333H3.35696C2.60857 5.08333 2 5.64427 2 6.33333V10.5C2 10.6105 2.04515 10.7165 2.12553 10.7946C2.2059 10.8728 2.31491 10.9167 2.42857 10.9167H4.14286V12.5833C4.14286 12.6938 4.18801 12.7998 4.26838 12.878C4.34876 12.9561 4.45776 13 4.57143 13H11.4286C11.5422 13 11.6512 12.9561 11.7316 12.878C11.812 12.7998 11.8571 12.6938 11.8571 12.5833V10.9167H13.5714C13.6851 10.9167 13.7941 10.8728 13.8745 10.7946C13.9548 10.7165 14 10.6105 14 10.5V6.33333C14 5.64427 13.3914 5.08333 12.643 5.08333ZM5 3.83333H11V5.08333H5V3.83333ZM11 12.1667H5V9.66667H11V12.1667ZM13.1429 10.0833H11.8571V9.25C11.8571 9.13949 11.812 9.03351 11.7316 8.95537C11.6512 8.87723 11.5422 8.83333 11.4286 8.83333H4.57143C4.45776 8.83333 4.34876 8.87723 4.26838 8.95537C4.18801 9.03351 4.14286 9.13949 4.14286 9.25V10.0833H2.85714V6.33333C2.85714 6.10365 3.08161 5.91667 3.35696 5.91667H12.643C12.9184 5.91667 13.1429 6.10365 13.1429 6.33333V10.0833ZM11.8571 7.375C11.8571 7.49861 11.8194 7.61945 11.7488 7.72223C11.6782 7.82501 11.5778 7.90512 11.4603 7.95242C11.3428 7.99973 11.2136 8.01211 11.0889 7.98799C10.9642 7.96387 10.8496 7.90435 10.7597 7.81694C10.6698 7.72953 10.6086 7.61817 10.5838 7.49693C10.559 7.37569 10.5717 7.25003 10.6204 7.13582C10.669 7.02162 10.7514 6.92401 10.8571 6.85533C10.9629 6.78666 11.0871 6.75 11.2143 6.75C11.3848 6.75 11.5483 6.81585 11.6689 6.93306C11.7894 7.05027 11.8571 7.20924 11.8571 7.375Z" fill="#B7B6E0"/>
</svg>
