<svg width="24" height="24" viewBox="0 0 24 24" fill="none" xmlns="http://www.w3.org/2000/svg">
<path d="M6.35897 7.80803L7.95297 7.32003C8.07858 7.28162 8.21052 7.26832 8.34127 7.2809C8.47202 7.29348 8.59901 7.33169 8.71499 7.39335C8.83097 7.45501 8.93367 7.53891 9.01722 7.64026C9.10078 7.74161 9.16356 7.85842 9.20197 7.98403C9.24038 8.10964 9.25367 8.24158 9.24109 8.37233C9.22851 8.50308 9.1903 8.63007 9.12864 8.74605C9.06699 8.86203 8.98309 8.96473 8.88174 9.04829C8.78039 9.13184 8.66358 9.19462 8.53797 9.23303L4.71297 10.403C4.5873 10.4415 4.45528 10.4547 4.32447 10.4421C4.19367 10.4295 4.06663 10.3912 3.95063 10.3294C3.83464 10.2676 3.73195 10.1836 3.64844 10.0822C3.56494 9.98068 3.50225 9.86375 3.46397 9.73803L2.29397 5.91303C2.25556 5.78742 2.24226 5.65547 2.25484 5.52473C2.26742 5.39398 2.30563 5.26699 2.36729 5.15101C2.42895 5.03503 2.51285 4.93233 2.6142 4.84877C2.71555 4.76522 2.83236 4.70244 2.95797 4.66403C3.21165 4.58645 3.48575 4.61283 3.71999 4.73735C3.95422 4.86188 4.12939 5.07435 4.20697 5.32803L4.64697 6.76903C7.05497 3.06003 11.832 1.46503 16.073 3.20303C17.3413 3.72289 18.4802 4.51437 19.4097 5.52179C20.3392 6.5292 21.0367 7.72807 21.453 9.03403C21.4956 9.15983 21.5128 9.29288 21.5035 9.4254C21.4942 9.55792 21.4586 9.68725 21.3987 9.80585C21.3389 9.92444 21.256 10.0299 21.1549 10.1161C21.0538 10.2023 20.9366 10.2675 20.81 10.3079C20.6835 10.3483 20.5501 10.3631 20.4178 10.3514C20.2855 10.3397 20.1568 10.3017 20.0393 10.2397C19.9218 10.1777 19.8179 10.0929 19.7335 9.99032C19.6491 9.8877 19.5861 9.7693 19.548 9.64203C19.1255 8.3154 18.3364 7.13531 17.2719 6.23803C16.2073 5.34074 14.9106 4.76285 13.5316 4.57108C12.1526 4.37931 10.7475 4.58147 9.47851 5.15424C8.20951 5.72701 7.12739 6.64701 6.35897 7.80803ZM18.686 16.003L16.911 16.446C16.7824 16.4813 16.6482 16.4905 16.516 16.4731C16.3839 16.4557 16.2566 16.4121 16.1416 16.3448C16.0265 16.2775 15.9261 16.1879 15.8462 16.0812C15.7663 15.9746 15.7085 15.853 15.6762 15.7237C15.644 15.5944 15.6379 15.4599 15.6583 15.3282C15.6788 15.1966 15.7253 15.0703 15.7953 14.9568C15.8652 14.8434 15.9571 14.7451 16.0656 14.6677C16.1741 14.5902 16.2969 14.5353 16.427 14.506L20.07 13.597C20.2598 13.5067 20.4733 13.4787 20.68 13.517C20.8791 13.5432 21.0657 13.6288 21.2156 13.7626C21.3654 13.8963 21.4715 14.0721 21.52 14.267L22.488 18.147C22.5453 18.4019 22.5007 18.669 22.3636 18.8914C22.2265 19.1137 22.0079 19.2736 21.7544 19.3368C21.501 19.4001 21.2329 19.3616 21.0074 19.2297C20.7819 19.0978 20.617 18.8829 20.548 18.631L20.218 17.309C19.2551 18.6946 17.9364 19.7948 16.4008 20.4939C14.8651 21.1929 13.1694 21.4648 11.4921 21.2809C9.81492 21.097 8.21834 20.4642 6.87058 19.4492C5.52282 18.4341 4.47378 17.0743 3.83397 15.513L3.57397 14.879C3.5242 14.7575 3.49885 14.6273 3.49938 14.496C3.49991 14.3647 3.5263 14.2347 3.57705 14.1136C3.62779 13.9925 3.7019 13.8825 3.79514 13.79C3.88838 13.6975 3.99893 13.6243 4.12047 13.5745C4.36593 13.474 4.64126 13.4751 4.8859 13.5776C5.00704 13.6284 5.11699 13.7025 5.20948 13.7957C5.30197 13.8889 5.3752 13.9995 5.42497 14.121L5.68497 14.754C6.19472 15.9979 7.03446 17.0789 8.11358 17.8804C9.1927 18.6819 10.4702 19.1735 11.8083 19.3022C13.1463 19.4308 14.4941 19.1916 15.7062 18.6104C16.9182 18.0291 17.9486 17.1269 18.686 16.003Z" fill="#9285EE"/>
</svg>
