<svg width="16" height="16" viewBox="0 0 16 16" fill="none" xmlns="http://www.w3.org/2000/svg">
<path d="M13 3.49994L12.85 3.34994C12 2.39994 10.75 2.09994 10.75 2.09994C9.25 1.64994 6.9 2.64994 4.801 4.69894C3.051 6.34994 2 8.34994 2 9.84994C2 10.0514 2.051 10.2504 2.051 10.4499C2.1505 11.4499 2.801 12.5004 3.3495 13.0004C4.051 13.6994 4.9495 14.0514 5.9495 14.0514C7.5995 14.0514 9.551 13.0999 11.3495 11.4009C14.1505 8.64994 14.85 5.39994 13 3.49994ZM5 10.8499C5 10.1989 5.699 8.84994 7.199 7.34994C8.6505 5.89994 10.1505 5.49994 10.8495 5.34994C10.5 6.30094 9.75 7.44894 8.6505 8.55094C7.5995 9.55094 6.4005 10.3494 5.3495 10.7499C5.25 10.8009 5.0995 10.8009 5 10.8499ZM5.5 5.39994C7.15 3.74994 8.9 2.94894 10 2.94894C10.35 2.94894 10.65 3.05094 10.85 3.24994C11.051 3.44894 11.15 3.84994 11.1 4.30094C10.5 4.34944 8.449 4.69894 6.5 6.65044C5.25 7.90044 3.949 9.69894 4.051 10.9489C3.75 10.9489 3.449 10.8494 3.301 10.6989C3.17741 10.5755 3.09081 10.42 3.051 10.2499C3.051 10.2499 3 9.99994 3 9.84994C3.051 8.59994 4 6.84994 5.5 5.39994ZM10.65 10.6499C8.25 13.0509 5.5 13.6989 4.051 12.3009C3.93826 12.1948 3.83734 12.0768 3.75 11.9489C3.85 11.9999 4 11.9999 4.15 11.9999C4.6 11.9999 5.15 11.8999 5.699 11.6989C6.9005 11.2499 8.199 10.4004 9.3495 9.24994C11.0995 7.49994 12.0995 5.49994 12.0995 4.05094L12.1505 4.09944L12.3005 4.19944C13.699 5.65044 13 8.34944 10.6505 10.6504L10.65 10.6499Z" fill="#B7B6E0"/>
</svg>
