<svg width="16" height="16" viewBox="0 0 16 16" fill="none" xmlns="http://www.w3.org/2000/svg">
<path d="M5.92076 4.70103C6.19377 4.428 6.51789 4.21141 6.87461 4.06364C7.23132 3.91588 7.61365 3.83982 7.99976 3.83982C8.38588 3.83982 8.76821 3.91588 9.12492 4.06364C9.48164 4.21141 9.80576 4.428 10.0788 4.70103C10.1175 4.74115 10.1639 4.77314 10.2151 4.79516C10.2663 4.81717 10.3215 4.82875 10.3772 4.82924C10.433 4.82972 10.4883 4.8191 10.5399 4.79798C10.5915 4.77686 10.6384 4.74567 10.6779 4.70624C10.7173 4.6668 10.7485 4.61991 10.7696 4.56829C10.7907 4.51668 10.8013 4.46137 10.8009 4.40561C10.8004 4.34984 10.7888 4.29473 10.7668 4.24348C10.7448 4.19224 10.7128 4.1459 10.6726 4.10715C10.3216 3.75614 9.90493 3.47771 9.44632 3.28774C8.98771 3.09777 8.49617 3 7.99976 3C7.50336 3 7.01182 3.09777 6.55321 3.28774C6.0946 3.47771 5.67789 3.75614 5.32688 4.10715C5.25038 4.18637 5.20804 4.29246 5.209 4.40258C5.20996 4.5127 5.25413 4.61805 5.332 4.69592C5.40987 4.77379 5.51521 4.81796 5.62534 4.81892C5.73546 4.81987 5.84155 4.77754 5.92076 4.70103Z" fill="#B7B6E0"/>
<path d="M7.10932 5.88968C7.34557 5.65372 7.66582 5.52119 7.99972 5.52119C8.33362 5.52119 8.65387 5.65372 8.89012 5.88968C8.96899 5.96854 9.07595 6.01285 9.18748 6.01285C9.29901 6.01285 9.40597 5.96854 9.48484 5.88968C9.5637 5.81081 9.60801 5.70385 9.60801 5.59232C9.60801 5.48079 9.5637 5.37382 9.48484 5.29496C9.28983 5.0999 9.0583 4.94516 8.80348 4.83959C8.54866 4.73402 8.27554 4.67969 7.99972 4.67969C7.7239 4.67969 7.45078 4.73402 7.19596 4.83959C6.94114 4.94516 6.70961 5.0999 6.5146 5.29496C6.43809 5.37417 6.39576 5.48027 6.39672 5.59039C6.39767 5.70051 6.44184 5.80585 6.51971 5.88372C6.59759 5.9616 6.70293 6.00577 6.81305 6.00672C6.92317 6.00768 7.02927 5.96535 7.10848 5.88884L7.10932 5.88968ZM3.37972 11.4001C3.26833 11.4001 3.1615 11.3558 3.08273 11.2771C3.00397 11.1983 2.95972 11.0915 2.95972 10.9801C2.95972 10.8687 3.00397 10.7619 3.08273 10.6831C3.1615 10.6043 3.26833 10.5601 3.37972 10.5601C3.49111 10.5601 3.59794 10.6043 3.6767 10.6831C3.75547 10.7619 3.79972 10.8687 3.79972 10.9801C3.79972 11.0915 3.75547 11.1983 3.6767 11.2771C3.59794 11.3558 3.49111 11.4001 3.37972 11.4001ZM7.15972 10.9801C7.15972 11.0915 7.20397 11.1983 7.28273 11.2771C7.3615 11.3558 7.46833 11.4001 7.57972 11.4001C7.69111 11.4001 7.79794 11.3558 7.8767 11.2771C7.95547 11.1983 7.99972 11.0915 7.99972 10.9801C7.99972 10.8687 7.95547 10.7619 7.8767 10.6831C7.79794 10.6043 7.69111 10.5601 7.57972 10.5601C7.46833 10.5601 7.3615 10.6043 7.28273 10.6831C7.20397 10.7619 7.15972 10.8687 7.15972 10.9801ZM9.25972 11.4001C9.14833 11.4001 9.0415 11.3558 8.96273 11.2771C8.88397 11.1983 8.83972 11.0915 8.83972 10.9801C8.83972 10.8687 8.88397 10.7619 8.96273 10.6831C9.0415 10.6043 9.14833 10.5601 9.25972 10.5601C9.37111 10.5601 9.47794 10.6043 9.55671 10.6831C9.63547 10.7619 9.67972 10.8687 9.67972 10.9801C9.67972 11.0915 9.63547 11.1983 9.55671 11.2771C9.47794 11.3558 9.37111 11.4001 9.25972 11.4001ZM10.5197 10.9801C10.5197 11.0915 10.564 11.1983 10.6427 11.2771C10.7215 11.3558 10.8283 11.4001 10.9397 11.4001C11.0511 11.4001 11.1579 11.3558 11.2367 11.2771C11.3155 11.1983 11.3597 11.0915 11.3597 10.9801C11.3597 10.8687 11.3155 10.7619 11.2367 10.6831C11.1579 10.6043 11.0511 10.5601 10.9397 10.5601C10.8283 10.5601 10.7215 10.6043 10.6427 10.6831C10.564 10.7619 10.5197 10.8687 10.5197 10.9801ZM12.1997 10.9801C12.1997 11.0915 12.244 11.1983 12.3227 11.2771C12.4015 11.3558 12.5083 11.4001 12.6197 11.4001C12.7311 11.4001 12.8379 11.3558 12.9167 11.2771C12.9955 11.1983 13.0397 11.0915 13.0397 10.9801C13.0397 10.8687 12.9955 10.7619 12.9167 10.6831C12.8379 10.6043 12.7311 10.5601 12.6197 10.5601C12.5083 10.5601 12.4015 10.6043 12.3227 10.6831C12.244 10.7619 12.1997 10.8687 12.1997 10.9801Z" fill="#B7B6E0"/>
<path d="M3.77795 4.12711C3.76213 4.07287 3.73553 4.02238 3.69974 3.97867C3.66395 3.93495 3.61971 3.8989 3.56967 3.87268C3.51963 3.84646 3.46481 3.8306 3.40849 3.82607C3.35218 3.82153 3.29553 3.82839 3.24193 3.84626C3.18833 3.86413 3.13889 3.89262 3.09656 3.93004C3.05424 3.96746 3.01989 4.01304 2.99559 4.06404C2.97129 4.11504 2.95752 4.17042 2.95513 4.22687C2.95273 4.28332 2.96174 4.33967 2.98163 4.39255L4.47683 8.87983H2.53979C2.20561 8.87983 1.88513 9.01258 1.64883 9.24888C1.41253 9.48517 1.27979 9.80566 1.27979 10.1398L1.27979 11.8198C1.27979 12.154 1.41253 12.4745 1.64883 12.7108C1.88513 12.9471 2.20561 13.0798 2.53979 13.0798H2.95979C2.95979 13.1912 3.00404 13.2981 3.0828 13.3768C3.16157 13.4556 3.2684 13.4998 3.37979 13.4998H5.05979C5.17118 13.4998 5.27801 13.4556 5.35677 13.3768C5.43554 13.2981 5.47979 13.1912 5.47979 13.0798H10.5198C10.5198 13.1912 10.564 13.2981 10.6428 13.3768C10.7216 13.4556 10.8284 13.4998 10.9398 13.4998H12.6198C12.7312 13.4998 12.838 13.4556 12.9168 13.3768C12.9955 13.2981 13.0398 13.1912 13.0398 13.0798H13.4598C13.794 13.0798 14.1145 12.9471 14.3507 12.7108C14.587 12.4745 14.7198 12.154 14.7198 11.8198V10.1398C14.7198 9.80566 14.587 9.48517 14.3507 9.24888C14.1145 9.01258 13.794 8.87983 13.4598 8.87983H11.5228L13.018 4.39255C13.0378 4.33967 13.0469 4.28332 13.0445 4.22687C13.0421 4.17042 13.0283 4.11504 13.004 4.06404C12.9797 4.01304 12.9453 3.96746 12.903 3.93004C12.8607 3.89262 12.8112 3.86413 12.7576 3.84626C12.7041 3.82839 12.6474 3.82153 12.5911 3.82607C12.5348 3.8306 12.48 3.84646 12.4299 3.87268C12.3799 3.8989 12.3356 3.93495 12.2998 3.97867C12.2641 4.02238 12.2375 4.07287 12.2216 4.12711L10.6374 8.87983H5.36219L3.77795 4.12711ZM13.4598 9.71983C13.5712 9.71983 13.678 9.76408 13.7568 9.84284C13.8355 9.92161 13.8798 10.0284 13.8798 10.1398V11.8198C13.8798 11.9312 13.8355 12.0381 13.7568 12.1168C13.678 12.1956 13.5712 12.2398 13.4598 12.2398H2.53979C2.42839 12.2398 2.32157 12.1956 2.2428 12.1168C2.16404 12.0381 2.11979 11.9312 2.11979 11.8198V10.1398C2.11979 10.0284 2.16404 9.92161 2.2428 9.84284C2.32157 9.76408 2.42839 9.71983 2.53979 9.71983H13.4598Z" fill="#B7B6E0"/>
<path d="M8.41983 6.78011C8.41983 6.8915 8.37558 6.99833 8.29682 7.07709C8.21805 7.15586 8.11123 7.20011 7.99983 7.20011C7.88844 7.20011 7.78161 7.15586 7.70285 7.07709C7.62408 6.99833 7.57983 6.8915 7.57983 6.78011C7.57983 6.66872 7.62408 6.56189 7.70285 6.48312C7.78161 6.40436 7.88844 6.36011 7.99983 6.36011C8.11123 6.36011 8.21805 6.40436 8.29682 6.48312C8.37558 6.56189 8.41983 6.66872 8.41983 6.78011Z" fill="#B7B6E0"/>
</svg>
