<svg width="24" height="24" viewBox="0 0 24 24" fill="none" xmlns="http://www.w3.org/2000/svg">
<path d="M13.0198 19.93V21.9501C15.0298 21.75 16.8598 20.9501 18.3398 19.74L16.9198 18.31C15.7898 19.1922 14.4422 19.752 13.0198 19.93ZM4.02979 12C4.02979 7.95005 7.05978 4.59005 10.9798 4.07005V2.05005C5.94978 2.58005 2.02979 6.84005 2.02979 12C2.02979 17.16 5.94978 21.42 10.9798 21.9501V19.93C7.05978 19.41 4.02979 16.05 4.02979 12ZM19.9498 11H21.9698C21.7698 8.99005 20.9698 7.16005 19.7598 5.68005L18.3298 7.11005C19.1898 8.21005 19.7698 9.54005 19.9498 11ZM18.3398 4.26005C16.8222 3.01651 14.9718 2.24782 13.0198 2.05005V4.07005C14.4798 4.25005 15.8098 4.83005 16.9198 5.69005L18.3398 4.26005ZM18.3298 16.9L19.7598 18.32C21.005 16.8035 21.7739 14.9525 21.9698 13H19.9498C19.7717 14.4224 19.2119 15.7701 18.3298 16.9Z" fill="#9285EE"/>
<path d="M16 11.1C16 8.61 14.1 7 12 7C9.9 7 8 8.61 8 11.1C8 12.76 9.33 14.73 12 17C14.67 14.73 16 12.76 16 11.1ZM12 12C11.7242 11.9881 11.4637 11.8701 11.2728 11.6708C11.0818 11.4714 10.9753 11.206 10.9753 10.93C10.9753 10.654 11.0818 10.3886 11.2728 10.1892C11.4637 9.98987 11.7242 9.87193 12 9.86C12.2758 9.87193 12.5363 9.98987 12.7272 10.1892C12.9182 10.3886 13.0247 10.654 13.0247 10.93C13.0247 11.206 12.9182 11.4714 12.7272 11.6708C12.5363 11.8701 12.2758 11.9881 12 12Z" fill="#9285EE"/>
</svg>
