<svg width="16" height="16" viewBox="0 0 16 16" fill="none" xmlns="http://www.w3.org/2000/svg">
<path d="M10.4 2.4001C10.6122 2.4001 10.8157 2.48438 10.9657 2.63441C11.1157 2.78444 11.2 2.98792 11.2 3.2001V12.8001C11.2 13.0123 11.1157 13.2158 10.9657 13.3658C10.8157 13.5158 10.6122 13.6001 10.4 13.6001H5.6C5.38783 13.6001 5.18434 13.5158 5.03431 13.3658C4.88429 13.2158 4.8 13.0123 4.8 12.8001V3.2001C4.8 2.98792 4.88429 2.78444 5.03431 2.63441C5.18434 2.48438 5.38783 2.4001 5.6 2.4001H10.4ZM5.6 1.6001C5.17565 1.6001 4.76869 1.76867 4.46863 2.06873C4.16857 2.36879 4 2.77575 4 3.2001V12.8001C4 13.2244 4.16857 13.6314 4.46863 13.9315C4.76869 14.2315 5.17565 14.4001 5.6 14.4001H10.4C10.8243 14.4001 11.2313 14.2315 11.5314 13.9315C11.8314 13.6314 12 13.2244 12 12.8001V3.2001C12 2.77575 11.8314 2.36879 11.5314 2.06873C11.2313 1.76867 10.8243 1.6001 10.4 1.6001H5.6Z" fill="#B7B6E0"/>
<path d="M8.0002 12.8002C8.21237 12.8002 8.41585 12.7159 8.56588 12.5659C8.71591 12.4159 8.8002 12.2124 8.8002 12.0002C8.8002 11.788 8.71591 11.5845 8.56588 11.4345C8.41585 11.2845 8.21237 11.2002 8.0002 11.2002C7.78802 11.2002 7.58454 11.2845 7.43451 11.4345C7.28448 11.5845 7.2002 11.788 7.2002 12.0002C7.2002 12.2124 7.28448 12.4159 7.43451 12.5659C7.58454 12.7159 7.78802 12.8002 8.0002 12.8002Z" fill="#B7B6E0"/>
</svg>
