<svg width="24" height="24" viewBox="0 0 24 24" fill="none" xmlns="http://www.w3.org/2000/svg">
<path d="M13.3999 4.09995C13.2999 3.99995 13.1999 3.89995 12.9999 3.79995C12.7999 3.69995 12.6999 3.69995 12.4999 3.69995C12.2999 3.69995 12.1999 3.79995 11.9999 3.89995L6.7999 7.99995H3.3999C2.9999 7.99995 2.5999 8.19995 2.2999 8.49995C1.9999 8.69995 1.8999 9.09995 1.8999 9.49995V14.4C1.8999 14.8 2.0999 15.2 2.2999 15.5C2.5999 15.8 2.9999 16 3.3999 16H6.7999L12.0999 20.1C12.1999 20.2 12.3999 20.2999 12.5999 20.2999C12.7999 20.2999 12.8999 20.3 13.0999 20.2C13.2999 20.1 13.3999 20 13.4999 19.9C13.5999 19.7999 13.5999 19.6 13.5999 19.4V4.59995C13.4999 4.49995 13.4999 4.29995 13.3999 4.09995ZM6.1999 14.1H3.6999V9.89995H6.1999V14.1ZM11.6999 17.5L7.9999 14.6V9.39995L11.6999 6.49995V17.5Z" fill="#9285EE"/>
<path d="M15.4999 16.6001C15.2999 16.6001 14.9999 16.5001 14.8999 16.3001C14.4999 15.9001 14.4999 15.4001 14.8999 15.0001C15.1999 14.6001 15.9999 13.7001 16.0999 12.2001C16.0999 10.6001 15.1999 9.50006 14.8999 9.20006C14.4999 8.80006 14.5999 8.30006 14.8999 7.90006C15.2999 7.50006 15.8999 7.60006 16.1999 7.90006C16.6999 8.40006 17.8999 9.90006 17.8999 12.2001C17.8999 14.3001 16.6999 15.8001 16.1999 16.3001C15.9999 16.6001 15.7999 16.6001 15.4999 16.6001Z" fill="#9285EE"/>
<path d="M18.4999 19.8999C18.2999 19.8999 17.9999 19.7999 17.8999 19.5999C17.4999 19.1999 17.4999 18.6999 17.8999 18.2999C18.5999 17.4999 20.2999 15.3999 20.3999 12.2999C20.4999 8.89986 18.4999 6.59986 17.8999 5.99986C17.4999 5.59986 17.5999 5.09986 17.8999 4.69986C18.2999 4.29986 18.8999 4.39986 19.1999 4.69986C20.0999 5.69986 22.2999 8.29986 22.1999 12.2999C22.0999 16.0999 20.0999 18.5999 19.1999 19.4999C18.9999 19.7999 18.6999 19.8999 18.4999 19.8999Z" fill="#9285EE"/>
</svg>
