<svg width="24" height="24" viewBox="0 0 24 24" fill="none" xmlns="http://www.w3.org/2000/svg">
<path d="M14.1043 3.10162C13.9361 3.01939 13.7482 2.98603 13.562 3.00533C13.3759 3.02463 13.1988 3.09581 13.0511 3.21079L7.32265 7.66663H3.66645C3.22448 7.66663 2.80061 7.84223 2.48809 8.15479C2.17557 8.46735 2 8.89128 2 9.33331V14.6667C2 15.1087 2.17557 15.5326 2.48809 15.8452C2.80061 16.1577 3.22448 16.3333 3.66645 16.3333H7.32265L13.0511 20.7892C13.1988 20.9042 13.3759 20.9754 13.5621 20.9947C13.7483 21.014 13.9362 20.9806 14.1043 20.8984C14.2725 20.8161 14.4142 20.6883 14.5134 20.5295C14.6125 20.3707 14.665 20.1872 14.665 20V3.99996C14.665 3.81273 14.6125 3.62927 14.5133 3.47045C14.4142 3.31163 14.2725 3.18384 14.1043 3.10162ZM3.99974 9.66664H6.66607V14.3333H3.99974V9.66664ZM12.6653 17.9558L8.66581 14.8433V9.15664L12.6653 6.04496V17.9558ZM21.705 13.2933C21.798 13.3863 21.8718 13.4968 21.9221 13.6183C21.9724 13.7398 21.9983 13.8701 21.9983 14.0017C21.9983 14.1332 21.9724 14.2635 21.9221 14.385C21.8718 14.5065 21.798 14.617 21.705 14.71C21.612 14.803 21.5015 14.8768 21.38 14.9271C21.2585 14.9775 21.1283 15.0034 20.9967 15.0034C20.8652 15.0034 20.7349 14.9775 20.6134 14.9271C20.4919 14.8768 20.3815 14.803 20.2885 14.71L18.9978 13.4167L17.7055 14.71C17.5176 14.8979 17.2629 15.0034 16.9972 15.0034C16.7316 15.0034 16.4768 14.8979 16.289 14.71C16.1012 14.5221 15.9956 14.2673 15.9956 14.0017C15.9956 13.736 16.1012 13.4812 16.289 13.2933L17.5813 12L16.2882 10.7075C16.1003 10.5196 15.9948 10.2648 15.9948 9.99914C15.9948 9.73346 16.1003 9.47867 16.2882 9.29081C16.476 9.10294 16.7308 8.9974 16.9964 8.9974C17.262 8.9974 17.5168 9.10294 17.7046 9.29081L18.9978 10.5833L20.2901 9.29081C20.478 9.10294 20.7327 8.9974 20.9984 8.9974C21.264 8.9974 21.5188 9.10294 21.7066 9.29081C21.8945 9.47867 22 9.73346 22 9.99914C22 10.2648 21.8945 10.5196 21.7066 10.7075L20.4143 12L21.705 13.2933Z" fill="#9285EE"/>
</svg>
