<svg width="24" height="24" viewBox="0 0 24 24" fill="none" xmlns="http://www.w3.org/2000/svg">
<path d="M2 18V10C2 9.45 2.196 8.979 2.588 8.587C2.98 8.195 3.45067 7.99934 4 8H7V6C7 5.45 7.196 4.979 7.588 4.587C7.98 4.195 8.45067 3.99934 9 4H15C15.55 4 16.021 4.196 16.413 4.588C16.805 4.98 17.0007 5.45067 17 6V8H20C20.55 8 21.021 8.196 21.413 8.588C21.805 8.98 22.0007 9.45067 22 10V18C22 18.55 21.804 19.021 21.412 19.413C21.02 19.805 20.5493 20.0007 20 20H4C3.45 20 2.979 19.804 2.587 19.412C2.195 19.02 1.99934 18.5493 2 18ZM4 18H20V15H18C18 15.2833 17.904 15.521 17.712 15.713C17.52 15.905 17.2827 16.0007 17 16C16.7167 16 16.479 15.904 16.287 15.712C16.095 15.52 15.9993 15.2827 16 15H8C8 15.2833 7.904 15.521 7.712 15.713C7.52 15.905 7.28267 16.0007 7 16C6.71667 16 6.479 15.904 6.287 15.712C6.095 15.52 5.99934 15.2827 6 15H4V18ZM4 10V13H6C6 12.7167 6.096 12.479 6.288 12.287C6.48 12.095 6.71734 11.9993 7 12C7.28334 12 7.521 12.096 7.713 12.288C7.905 12.48 8.00067 12.7173 8 13H16C16 12.7167 16.096 12.479 16.288 12.287C16.48 12.095 16.7173 11.9993 17 12C17.2833 12 17.521 12.096 17.713 12.288C17.905 12.48 18.0007 12.7173 18 13H20V10H4ZM9 8H15V6H9V8Z" fill="#9285EE"/>
</svg>
