<svg width="24" height="24" viewBox="0 0 24 24" fill="none" xmlns="http://www.w3.org/2000/svg">
<path d="M10.0501 21.7499H9.9001C9.0001 21.5999 7.9501 21.1499 7.2001 20.6999C6.7501 20.3999 6.6001 19.7999 6.9001 19.3499C7.2001 18.8999 7.8001 18.7499 8.2501 19.0499C9.0001 19.4999 9.7501 19.7999 10.5001 19.9499C11.1001 20.0999 11.4001 20.5499 11.2501 21.1499C10.8001 21.4499 10.5001 21.7499 10.0501 21.7499ZM13.9501 21.7499C13.5001 21.7499 13.0501 21.4499 13.0501 20.9999C12.9001 20.5499 13.2001 19.9499 13.8001 19.7999C15.6001 19.3499 17.1001 18.4499 18.3001 16.9499C19.5001 15.5999 20.1001 13.7999 20.1001 11.9999C20.1001 10.1999 19.5001 8.39989 18.3001 7.04989C17.1001 5.69989 15.6001 4.64989 13.8001 4.19989C13.2001 4.04989 12.9001 3.5999 13.0501 2.9999C13.2001 2.3999 13.6501 2.0999 14.2501 2.2499C16.5001 2.6999 18.4501 4.04989 19.8001 5.69989C21.1501 7.4999 21.9001 9.7499 21.9001 11.9999C21.9001 14.2499 21.1501 16.4999 19.6501 18.1499C18.3001 19.9499 16.2001 21.1499 14.1001 21.5999C14.1001 21.7499 14.1001 21.7499 13.9501 21.7499ZM4.6501 17.9999C4.3501 17.9999 4.0501 17.8499 3.9001 17.5499C3.3001 16.6499 2.8501 15.7499 2.5501 14.6999C2.2501 14.2499 2.5501 13.6499 3.1501 13.4999C3.6001 13.3499 4.2001 13.6499 4.3501 14.0999C4.5001 14.9999 4.9501 15.8999 5.4001 16.4999C5.7001 16.9499 5.5501 17.5499 5.1001 17.8499C4.9501 17.9999 4.8001 17.9999 4.6501 17.9999ZM12.0001 16.0499C11.8501 16.0499 11.7001 16.0499 11.4001 15.8999C10.9501 15.5999 10.8001 14.9999 11.1001 14.5499L12.1501 13.0499H10.0501C9.7501 13.0499 9.3001 12.8999 9.1501 12.5999C9.0001 12.1499 9.0001 11.6999 9.1501 11.3999L11.1001 8.3999C11.4001 7.9499 12.0001 7.7999 12.4501 8.0999C12.9001 8.3999 13.0501 8.9999 12.7501 9.4499L11.7001 10.9499H13.9501C14.2501 10.9499 14.7001 11.0999 14.8501 11.3999C15.0001 11.6999 15.0001 12.1499 14.8501 12.4499L12.9001 15.4499C12.6001 15.7499 12.3001 16.0499 12.0001 16.0499ZM3.1501 11.3999H3.0001C2.4001 11.3999 2.1001 10.7999 2.1001 10.3499C2.2501 9.2999 2.5501 8.2499 3.1501 7.3499L3.3001 7.04989C3.6001 6.59989 4.2001 6.44989 4.6501 6.5999C5.1001 6.8999 5.2501 7.4999 5.1001 7.9499L4.9501 8.2499C4.5001 8.9999 4.2001 9.8999 4.0501 10.6499C4.0501 11.0999 3.6001 11.3999 3.1501 11.3999ZM6.9001 5.5499C6.6001 5.5499 6.3001 5.3999 6.1501 5.0999C5.8501 4.6499 5.8501 4.04989 6.3001 3.74989C7.3501 2.99989 8.5501 2.5499 9.7501 2.2499C10.3501 2.0999 10.8001 2.5499 10.9501 2.9999C11.1001 3.5999 10.8001 4.04989 10.2001 4.19989C9.3001 4.3499 8.2501 4.79989 7.5001 5.39989C7.3501 5.54989 7.0501 5.5499 6.9001 5.5499Z" fill="#71AFE8"/>
</svg>
