<svg width="24" height="24" viewBox="0 0 24 24" fill="none" xmlns="http://www.w3.org/2000/svg">
<path d="M11.25 1.5C11.7969 1.5 12.4141 1.53125 13.1016 1.59375C13.7891 1.65625 14.4766 1.76562 15.1641 1.92188C15.8516 2.07812 16.5078 2.28516 17.1328 2.54297C17.7578 2.80078 18.2734 3.13281 18.6797 3.53906C18.9219 3.77344 19.1172 4.02734 19.2656 4.30078C19.4141 4.57422 19.4922 4.89062 19.5 5.25V18.75C19.5 19.1016 19.4258 19.4141 19.2773 19.6875C19.1289 19.9609 18.9297 20.2188 18.6797 20.4609C18.2734 20.8594 17.7617 21.1875 17.1445 21.4453C16.5273 21.7031 15.8711 21.9141 15.1758 22.0781C14.4805 22.2422 13.7891 22.3516 13.1016 22.4062C12.4141 22.4609 11.7969 22.4922 11.25 22.5C10.7031 22.5 10.0859 22.4688 9.39844 22.4062C8.71094 22.3438 8.02344 22.2344 7.33594 22.0781C6.64844 21.9219 5.99219 21.7148 5.36719 21.457C4.74219 21.1992 4.22656 20.8672 3.82031 20.4609C3.57812 20.2266 3.38281 19.9727 3.23438 19.6992C3.08594 19.4258 3.00781 19.1094 3 18.75V5.25C3 4.89844 3.07422 4.58594 3.22266 4.3125C3.37109 4.03906 3.57031 3.78125 3.82031 3.53906C4.22656 3.14062 4.73828 2.8125 5.35547 2.55469C5.97266 2.29688 6.62891 2.08594 7.32422 1.92188C8.01953 1.75781 8.71094 1.64844 9.39844 1.59375C10.0859 1.53906 10.7031 1.50781 11.25 1.5ZM11.25 3C10.8516 3 10.4375 3.01172 10.0078 3.03516C9.57812 3.05859 9.14453 3.10547 8.70703 3.17578C8.26953 3.24609 7.83984 3.33203 7.41797 3.43359C6.99609 3.53516 6.59766 3.66406 6.22266 3.82031C6.10547 3.86719 5.94922 3.9375 5.75391 4.03125C5.55859 4.125 5.36719 4.23828 5.17969 4.37109C4.99219 4.50391 4.83203 4.64062 4.69922 4.78125C4.56641 4.92188 4.5 5.07812 4.5 5.25C4.5 5.3125 4.51172 5.37109 4.53516 5.42578C4.55859 5.48047 4.58984 5.53516 4.62891 5.58984C4.79297 5.83984 5.02734 6.05859 5.33203 6.24609C5.63672 6.43359 5.98438 6.59766 6.375 6.73828C6.76562 6.87891 7.17969 6.99609 7.61719 7.08984C8.05469 7.18359 8.49219 7.26172 8.92969 7.32422C9.36719 7.38672 9.78516 7.42969 10.1836 7.45312C10.582 7.47656 10.9375 7.49219 11.25 7.5C11.5625 7.5 11.918 7.48828 12.3164 7.46484C12.7148 7.44141 13.1328 7.39844 13.5703 7.33594C14.0078 7.27344 14.4453 7.19531 14.8828 7.10156C15.3203 7.00781 15.7305 6.88672 16.1133 6.73828C16.4961 6.58984 16.8438 6.42578 17.1562 6.24609C17.4688 6.06641 17.707 5.84766 17.8711 5.58984C17.9102 5.53516 17.9414 5.48047 17.9648 5.42578C17.9883 5.37109 18 5.3125 18 5.25C18 5.09375 17.9336 4.94141 17.8008 4.79297C17.668 4.64453 17.5078 4.50391 17.3203 4.37109C17.1328 4.23828 16.9414 4.12891 16.7461 4.04297C16.5508 3.95703 16.3945 3.88281 16.2773 3.82031C15.9023 3.67188 15.5039 3.54688 15.082 3.44531C14.6602 3.34375 14.2344 3.25781 13.8047 3.1875C13.375 3.11719 12.9414 3.07031 12.5039 3.04688C12.0664 3.02344 11.6484 3.00781 11.25 3ZM11.25 21C11.6484 21 12.0625 20.9883 12.4922 20.9648C12.9219 20.9414 13.3594 20.8945 13.8047 20.8242C14.25 20.7539 14.6797 20.668 15.0938 20.5664C15.5078 20.4648 15.9023 20.3359 16.2773 20.1797C16.3945 20.1328 16.5508 20.0625 16.7461 19.9688C16.9414 19.875 17.1328 19.7617 17.3203 19.6289C17.5078 19.4961 17.668 19.3594 17.8008 19.2188C17.9336 19.0781 18 18.9219 18 18.75V16.4766C17.5547 16.7734 17.0508 17.0195 16.4883 17.2148C15.9258 17.4102 15.3438 17.5664 14.7422 17.6836C14.1406 17.8008 13.5391 17.8828 12.9375 17.9297C12.3359 17.9766 11.7734 18 11.25 18C10.7266 18 10.1641 17.9766 9.5625 17.9297C8.96094 17.8828 8.35938 17.8008 7.75781 17.6836C7.15625 17.5664 6.57422 17.4102 6.01172 17.2148C5.44922 17.0195 4.94531 16.7734 4.5 16.4766V18.75C4.5 18.9141 4.56641 19.0703 4.69922 19.2188C4.83203 19.3672 4.99219 19.5039 5.17969 19.6289C5.36719 19.7539 5.55859 19.8633 5.75391 19.957C5.94922 20.0508 6.10547 20.125 6.22266 20.1797C6.58984 20.3359 6.98438 20.4648 7.40625 20.5664C7.82812 20.668 8.25781 20.75 8.69531 20.8125C9.13281 20.875 9.56641 20.9219 9.99609 20.9531C10.4258 20.9844 10.8438 21 11.25 21ZM11.25 16.5C11.6484 16.5 12.0625 16.4883 12.4922 16.4648C12.9219 16.4414 13.3594 16.3945 13.8047 16.3242C14.25 16.2539 14.6797 16.168 15.0938 16.0664C15.5078 15.9648 15.9023 15.8359 16.2773 15.6797C16.3945 15.6328 16.5508 15.5625 16.7461 15.4688C16.9414 15.375 17.1328 15.2617 17.3203 15.1289C17.5078 14.9961 17.668 14.8594 17.8008 14.7188C17.9336 14.5781 18 14.4219 18 14.25V11.9766C17.5547 12.2734 17.0508 12.5195 16.4883 12.7148C15.9258 12.9102 15.3438 13.0664 14.7422 13.1836C14.1406 13.3008 13.5391 13.3828 12.9375 13.4297C12.3359 13.4766 11.7734 13.5 11.25 13.5C10.7266 13.5 10.1641 13.4766 9.5625 13.4297C8.96094 13.3828 8.35938 13.3008 7.75781 13.1836C7.15625 13.0664 6.57422 12.9102 6.01172 12.7148C5.44922 12.5195 4.94531 12.2734 4.5 11.9766V14.25C4.5 14.4141 4.56641 14.5703 4.69922 14.7188C4.83203 14.8672 4.99219 15.0039 5.17969 15.1289C5.36719 15.2539 5.55859 15.3633 5.75391 15.457C5.94922 15.5508 6.10547 15.625 6.22266 15.6797C6.58984 15.8359 6.98438 15.9648 7.40625 16.0664C7.82812 16.168 8.25781 16.25 8.69531 16.3125C9.13281 16.375 9.56641 16.4219 9.99609 16.4531C10.4258 16.4844 10.8438 16.5 11.25 16.5ZM11.25 12C11.6562 12 12.0742 11.9883 12.5039 11.9648C12.9336 11.9414 13.3633 11.8945 13.793 11.8242C14.2227 11.7539 14.6523 11.668 15.082 11.5664C15.5117 11.4648 15.9102 11.3359 16.2773 11.1797C16.3945 11.1328 16.5508 11.0625 16.7461 10.9688C16.9414 10.875 17.1328 10.7617 17.3203 10.6289C17.5078 10.4961 17.668 10.3594 17.8008 10.2188C17.9336 10.0781 18 9.92188 18 9.75V7.47656C17.5547 7.76562 17.0547 8.00781 16.5 8.20312C15.9453 8.39844 15.3633 8.55469 14.7539 8.67188C14.1445 8.78906 13.5391 8.87109 12.9375 8.91797C12.3359 8.96484 11.7734 8.99219 11.25 9C10.7266 9 10.1641 8.97656 9.5625 8.92969C8.96094 8.88281 8.35938 8.79688 7.75781 8.67188C7.15625 8.54688 6.57422 8.39062 6.01172 8.20312C5.44922 8.01562 4.94531 7.77344 4.5 7.47656V9.75C4.5 9.90625 4.56641 10.0586 4.69922 10.207C4.83203 10.3555 4.99219 10.4961 5.17969 10.6289C5.36719 10.7617 5.55859 10.8711 5.75391 10.957C5.94922 11.043 6.10547 11.1172 6.22266 11.1797C6.59766 11.3359 6.99609 11.4648 7.41797 11.5664C7.83984 11.668 8.26562 11.75 8.69531 11.8125C9.125 11.875 9.55859 11.9219 9.99609 11.9531C10.4336 11.9844 10.8516 12 11.25 12Z" fill="#9285EE"/>
</svg>
