<svg width="24" height="24" viewBox="0 0 24 24" fill="none" xmlns="http://www.w3.org/2000/svg">
<g clip-path="url(#clip0_2871_2673)">
<path d="M15.6657 22C12.1843 21.9351 9.57689 19.5893 9.09296 16.5291C9.06407 16.3414 8.99184 16.2837 8.81849 16.2909C8.51513 16.2981 8.219 16.2981 7.91564 16.2909C7.56894 16.2837 7.38837 16.1032 7.35226 15.764C7.33059 15.5258 7.3017 15.2877 7.27281 15.0495C7.23669 14.7896 6.57219 14.4865 6.35551 14.6453C6.14605 14.7896 5.95825 14.9556 5.75602 15.1072C5.48877 15.3165 5.2432 15.3165 4.9904 15.0567C4.41257 14.4648 3.8203 13.8802 3.22803 13.2956C2.98967 13.0574 2.98245 12.8192 3.18469 12.5594C3.27136 12.4439 3.35082 12.314 3.45194 12.2202C3.74807 11.9531 3.74807 11.6788 3.57472 11.3396C3.46638 11.1159 3.35082 11.0076 3.09079 11.0148C2.86689 11.022 2.63576 10.986 2.41185 10.9354C2.1446 10.8705 2.01459 10.6756 2.00737 10.4086C2.00015 9.56409 2.00015 8.72685 2.00737 7.88239C2.01459 7.57203 2.18072 7.36994 2.51297 7.34107C2.75132 7.31941 2.98967 7.29054 3.22803 7.26167C3.51694 7.22558 3.80585 6.56156 3.63973 6.32338C3.49527 6.12129 3.32915 5.92641 3.17747 5.72432C2.98245 5.46449 2.98967 5.22631 3.22803 4.98812C3.8203 4.4035 4.40535 3.81887 4.9904 3.22703C5.2432 2.96719 5.48877 2.96719 5.75602 3.18372C5.87158 3.27033 6.00159 3.34973 6.09549 3.45077C6.35551 3.73948 6.62275 3.73226 6.94778 3.56625C7.16447 3.45799 7.29448 3.34973 7.28725 3.08989C7.28003 2.86615 7.31615 2.63518 7.36671 2.41144C7.42449 2.14439 7.6195 2.00003 7.88675 2.00003C8.73904 1.99282 9.59856 1.9856 10.4509 2.00003C10.747 2.00725 10.9348 2.18047 10.9709 2.49083C10.9853 2.63518 11.0576 2.77954 11.0287 2.91667C10.9276 3.47964 11.3609 3.55904 11.7221 3.68895C11.8015 3.71782 11.9243 3.6673 12.0038 3.61678C12.2132 3.47243 12.401 3.30642 12.6033 3.15485C12.8488 2.96719 13.0872 2.98163 13.3111 3.20537C13.9034 3.80444 14.4956 4.39628 15.0951 4.98812C15.319 5.21187 15.3335 5.44283 15.1529 5.69545C15.0446 5.8398 14.9434 5.99137 14.8134 6.12129C14.604 6.34504 14.5679 6.54713 14.6979 6.85027C14.8279 7.14619 14.9723 7.29776 15.3046 7.26889C15.4924 7.25445 15.6874 7.29776 15.8752 7.34107C16.1641 7.40602 16.2941 7.6009 16.3013 7.88239C16.3086 8.18553 16.3086 8.48145 16.3013 8.78459C16.2941 8.95059 16.3302 9.0372 16.5252 9.07329C19.3494 9.56409 21.444 11.6211 21.9135 14.4432C22.4841 17.8788 20.1944 21.17 16.7564 21.834C16.3375 21.9279 15.9041 21.9639 15.6657 22ZM9.94525 15.4897C9.94525 18.3768 12.206 21.0184 15.4852 21.0329C18.5838 21.0401 21.0323 18.6294 21.0395 15.5042C21.0467 12.2274 18.396 9.9394 15.4779 9.94662C12.4299 9.94662 9.94525 12.4367 9.94525 15.4897ZM12.7766 9.49191C13.6361 9.28982 14.474 9.09494 15.3335 8.90007C15.3913 8.27935 15.3913 8.22883 14.7268 8.17109C14.2789 8.135 14.0912 7.91847 13.9684 7.55038C13.8745 7.27611 13.7589 7.01627 13.6361 6.75644C13.4989 6.46773 13.5133 6.2079 13.7372 5.9625C13.8889 5.7965 14.0117 5.60884 14.12 5.45727C13.6867 5.00978 13.2822 4.59116 12.8705 4.17253C12.8272 4.2014 12.7766 4.22306 12.7477 4.25193C12.2493 4.82212 11.7221 4.7716 11.0503 4.49011C10.4075 4.22306 10.0464 3.90548 10.0897 3.19816C10.1042 3.0105 10.0103 2.94554 9.82969 2.95276C9.43243 2.95998 9.03518 2.96719 8.63792 2.95276C8.34901 2.93832 8.19733 2.98885 8.20455 3.33529C8.219 3.86939 8.01676 4.27358 7.42449 4.4035C7.15724 4.46124 6.91889 4.6489 6.65887 4.69942C6.45663 4.73551 6.21828 4.6922 6.03048 4.60559C5.80658 4.50454 5.626 4.31689 5.45266 4.17975C5.01206 4.61281 4.59314 5.02421 4.16699 5.44283C4.29701 5.61606 4.41257 5.80371 4.56425 5.95528C4.79538 6.20068 4.81705 6.4533 4.68704 6.74922C4.53536 7.08845 4.41979 7.44211 4.24645 7.77412C4.17422 7.91847 4.02976 8.06283 3.8853 8.135C3.71918 8.2144 3.50972 8.22883 3.32192 8.2144C2.9969 8.19274 2.93911 8.34431 2.96078 8.6258C2.98245 8.97225 2.98967 9.32591 2.96078 9.67235C2.93911 9.99715 3.03301 10.1271 3.37248 10.1126C3.9142 10.091 4.27534 10.3292 4.40535 10.8849C4.46313 11.1375 4.59314 11.3757 4.70148 11.6139C4.81705 11.8737 4.79538 12.0975 4.60759 12.314C4.45591 12.4944 4.31867 12.6893 4.17422 12.8698C4.60759 13.3028 5.01929 13.7142 5.49599 14.1906C6.11716 13.1368 6.89 13.6709 7.6484 13.9957C7.67006 14.0029 7.69173 14.0174 7.7134 14.0246C8.00954 14.1184 8.13955 14.3061 8.16844 14.6309C8.24067 15.4031 8.26234 15.3959 8.9485 15.331C8.97017 15.331 8.98462 15.3021 8.9774 15.3093C9.04962 14.8546 9.08574 14.4288 9.18686 14.0101C9.28075 13.5915 9.43966 13.1945 9.56967 12.7831C6.78166 12.8986 5.42377 10.6612 5.55378 8.86398C5.68379 7.03071 7.28725 5.54388 9.2013 5.52945C10.7831 5.51501 12.8922 6.8214 12.7766 9.49191ZM6.47108 9.1166C6.4783 9.27538 6.47108 9.43417 6.50719 9.58574C6.78166 10.8416 7.67006 11.6861 8.96295 11.8015C9.58411 11.8593 10.2053 11.7799 10.6386 11.1953C10.812 10.9571 11.0792 10.7839 11.267 10.5529C11.4548 10.3147 11.6643 10.0621 11.7293 9.78062C11.816 9.43417 11.8087 9.04442 11.751 8.68354C11.5271 7.27611 10.2558 6.33782 8.81127 6.47495C7.52561 6.59765 6.4783 7.78856 6.47108 9.1166Z" fill="#9285EE"/>
<path d="M12.4589 17.5252C12.17 17.5252 11.9027 17.5252 11.6427 17.5252C11.1805 17.518 10.8988 17.2582 10.8843 16.7962C10.8699 16.2766 10.8771 15.7641 10.8843 15.2445C10.8915 14.7176 11.2021 14.3928 11.7294 14.3639C11.9533 14.3495 12.1844 14.3639 12.4661 14.3639C12.4156 13.1586 12.7695 12.1264 13.7807 11.4191C14.3368 11.0294 14.9724 10.8417 15.6514 10.885C16.5253 10.9428 17.2621 11.3181 17.8255 11.9965C18.3888 12.675 18.5333 13.4689 18.5044 14.3567C18.75 14.3567 18.9667 14.3495 19.1761 14.3567C19.7612 14.3711 20.0645 14.667 20.0717 15.2445C20.079 15.7641 20.079 16.2766 20.0717 16.7962C20.0645 17.2726 19.7973 17.5108 19.3206 17.518C18.9594 17.518 18.5983 17.518 18.2372 17.518C17.6665 17.518 17.5293 17.3809 17.5293 16.789C17.5293 15.8002 17.5293 14.8186 17.5293 13.8298C17.5221 12.7616 16.6915 11.8811 15.5719 11.8233C14.5535 11.78 13.6434 12.4945 13.4845 13.4906C13.4484 13.7288 13.4195 13.9669 13.4195 14.2051C13.4123 15.3022 13.4123 16.3921 13.4195 17.4891C13.4195 17.9944 13.5857 18.1604 14.084 18.1604C14.698 18.1604 15.3119 18.1604 15.9258 18.1604C16.0197 18.1604 16.1209 18.1459 16.2148 18.1748C16.4748 18.247 16.6337 18.413 16.5976 18.7017C16.5615 18.9687 16.4026 19.0987 16.1353 19.0987C15.413 19.0987 14.6907 19.0987 13.9685 19.0987C13.1306 19.0987 12.5672 18.579 12.4878 17.749C12.4733 17.6984 12.4661 17.6407 12.4589 17.5252ZM11.8522 15.3527C11.8522 15.7786 11.8522 16.1683 11.8522 16.5653C12.0616 16.5653 12.2494 16.5653 12.4444 16.5653C12.4444 16.1539 12.4444 15.7497 12.4444 15.3527C12.235 15.3527 12.0616 15.3527 11.8522 15.3527ZM18.5261 16.5653C18.7427 16.5653 18.9161 16.5653 19.1039 16.5653C19.1039 16.1539 19.1039 15.7641 19.1039 15.3744C18.9017 15.3744 18.7139 15.3744 18.5261 15.3744C18.5261 15.7786 18.5261 16.1611 18.5261 16.5653Z" fill="#9285EE"/>
</g>
<defs>
<clipPath id="clip0_2871_2673">
<rect width="20" height="20" fill="white" transform="translate(2 2)"/>
</clipPath>
</defs>
</svg>
