<svg width="16" height="16" viewBox="0 0 16 16" fill="none" xmlns="http://www.w3.org/2000/svg">
<path d="M12.7222 5.22241H3.27772C2.9709 5.22241 2.72217 5.47114 2.72217 5.77797V12.4446C2.72217 12.7515 2.9709 13.0002 3.27772 13.0002H12.7222C13.029 13.0002 13.2777 12.7515 13.2777 12.4446V5.77797C13.2777 5.47114 13.029 5.22241 12.7222 5.22241Z" stroke="#B7B6E0"/>
<path d="M7.99973 5.22223L11.8886 3M7.72196 5.22223L4.11084 3M11.0553 6.88889V8.55556" stroke="#B7B6E0" stroke-linecap="round" stroke-linejoin="round"/>
<path d="M11.6111 10.778C11.6111 10.4711 11.3624 10.2224 11.0556 10.2224C10.7487 10.2224 10.5 10.4711 10.5 10.778C10.5 11.0848 10.7487 11.3335 11.0556 11.3335C11.3624 11.3335 11.6111 11.0848 11.6111 10.778Z" fill="#B7B6E0"/>
</svg>
