<svg width="24" height="24" viewBox="0 0 24 24" fill="none" xmlns="http://www.w3.org/2000/svg">
<path d="M16.9 21.7001C16.7 21.5001 16.6 21.3001 16.6 21.1001V18.9001H14.4C13.9 18.9001 13.5 18.5001 13.5 18.0001C13.5 17.5001 13.9 17.1001 14.4 17.1001H16.6V15.0001C16.6 14.5001 17 14.1001 17.5 14.1001C18 14.1001 18.4 14.5001 18.4 15.0001V17.2001H20.6C21.1 17.2001 21.5 17.6001 21.5 18.1001C21.5 18.6001 21.1 19.0001 20.6 19.0001H18.4V21.2001C18.4 21.7001 18 22.1001 17.5 22.1001C17.3 22.0001 17.1 21.9001 16.9 21.7001Z" fill="#9285EE"/>
<path d="M5.5 22C4.9 22 4.5 21.6 4.5 21V19C4.5 17.7 5 16.4 6 15.5C6.9 14.5 8.2 14 9.5 14H13C13.6 14 14 14.4 14 15C14 15.6 13.6 16 13 16H9.5C8.7 16 7.9 16.3 7.4 16.9C6.9 17.5 6.5 18.2 6.5 19V21C6.5 21.6 6.1 22 5.5 22Z" fill="#9285EE"/>
<path d="M15.1 3.5C14.1 2.5 12.9 2 11.5 2C10.2 2 8.9 2.5 8 3.5C7.1 4.4 6.5 5.7 6.5 7C6.5 8.3 7 9.6 8 10.5C8.9 11.4 10.2 12 11.5 12C12.8 12 14.1 11.5 15 10.5C16 9.6 16.5 8.3 16.5 7C16.5 5.7 16 4.4 15.1 3.5ZM13.7 9.1C12.6 10.2 10.6 10.2 9.5 9.1C8.9 8.6 8.5 7.8 8.5 7C8.5 6.2 8.8 5.4 9.4 4.9C10 4.3 10.7 4 11.5 4C12.3 4 13.1 4.3 13.6 4.9C14.2 5.5 14.5 6.2 14.5 7C14.5 7.8 14.2 8.6 13.7 9.1Z" fill="#9285EE"/>
</svg>
