<svg width="12" height="12" viewBox="0 0 12 12" fill="none" xmlns="http://www.w3.org/2000/svg">
<g id="ph:users-bold">
<path id="Vector" d="M5.86786 7.35655C6.33897 6.96056 6.6769 6.42924 6.83581 5.83467C6.99472 5.2401 6.96692 4.61104 6.75618 4.0328C6.54545 3.45457 6.16197 2.95513 5.65775 2.60224C5.15354 2.24934 4.55298 2.06006 3.93754 2.06006C3.3221 2.06006 2.72155 2.24934 2.21733 2.60224C1.71312 2.95513 1.32964 3.45457 1.1189 4.0328C0.908162 4.61104 0.880362 5.2401 1.03927 5.83467C1.19818 6.42924 1.53611 6.96056 2.00723 7.35655C1.27156 7.6892 0.634034 8.20581 0.156136 8.85655C0.067869 8.97683 0.0309978 9.12725 0.0536341 9.27472C0.0762703 9.42218 0.15656 9.55462 0.27684 9.64288C0.397119 9.73115 0.547537 9.76802 0.695002 9.74539C0.842467 9.72275 0.9749 9.64246 1.06317 9.52218C1.39398 9.07037 1.82665 8.7029 2.32606 8.4496C2.82547 8.19629 3.37757 8.06429 3.93754 8.06429C4.49752 8.06429 5.04961 8.19629 5.54902 8.4496C6.04844 8.7029 6.4811 9.07037 6.81192 9.52218C6.90019 9.64252 7.03264 9.72287 7.18015 9.74555C7.32766 9.76823 7.47814 9.73138 7.59848 9.64312C7.71882 9.55485 7.79917 9.42239 7.82185 9.27488C7.84453 9.12737 7.80768 8.9769 7.71942 8.85655C7.24124 8.20589 6.60358 7.68931 5.86786 7.35655ZM2.06254 5.06249C2.06254 4.69165 2.17251 4.32914 2.37854 4.0208C2.58456 3.71246 2.8774 3.47213 3.22001 3.33022C3.56262 3.1883 3.93962 3.15117 4.30334 3.22352C4.66705 3.29587 5.00114 3.47444 5.26337 3.73667C5.52559 3.99889 5.70417 4.33298 5.77652 4.6967C5.84886 5.06041 5.81173 5.43741 5.66982 5.78002C5.5279 6.12263 5.28758 6.41547 4.97924 6.6215C4.67089 6.82753 4.30838 6.93749 3.93754 6.93749C3.44026 6.93749 2.96335 6.73995 2.61172 6.38832C2.26009 6.03669 2.06254 5.55977 2.06254 5.06249ZM11.7235 9.64077C11.6639 9.68453 11.5963 9.71613 11.5246 9.73376C11.4528 9.75138 11.3783 9.7547 11.3052 9.74351C11.2322 9.73232 11.1621 9.70685 11.0989 9.66855C11.0357 9.63025 10.9806 9.57988 10.9369 9.5203C10.6053 9.06935 10.1724 8.70253 9.67322 8.44933C9.17399 8.19613 8.62231 8.06364 8.06254 8.06249C7.91336 8.06249 7.77028 8.00323 7.66479 7.89774C7.55931 7.79225 7.50004 7.64918 7.50004 7.49999C7.50004 7.35081 7.55931 7.20773 7.66479 7.10224C7.77028 6.99676 7.91336 6.93749 8.06254 6.93749C8.33862 6.93717 8.61122 6.87588 8.86087 6.75801C9.11052 6.64014 9.33106 6.4686 9.50673 6.25563C9.68241 6.04267 9.8089 5.79353 9.87715 5.52602C9.9454 5.25852 9.95373 4.97924 9.90156 4.70814C9.84938 4.43704 9.73798 4.1808 9.57532 3.95774C9.41265 3.73467 9.20273 3.55028 8.96056 3.41773C8.71838 3.28518 8.44993 3.20775 8.17436 3.19096C7.8988 3.17418 7.62292 3.21845 7.36645 3.32062C7.29775 3.34875 7.22415 3.363 7.14992 3.36255C7.07568 3.36211 7.00227 3.34697 6.93391 3.31801C6.86555 3.28906 6.8036 3.24686 6.75163 3.19384C6.69966 3.14083 6.65869 3.07805 6.6311 3.00913C6.60351 2.94021 6.58983 2.86651 6.59086 2.79228C6.59189 2.71805 6.6076 2.64476 6.63709 2.57662C6.66657 2.50849 6.70926 2.44688 6.76268 2.39532C6.8161 2.34377 6.87919 2.3033 6.94832 2.27624C7.61035 2.01118 8.34514 1.99062 9.02095 2.21823C9.69676 2.44585 10.2694 2.90675 10.6362 3.51831C11.0029 4.12987 11.1399 4.85208 11.0224 5.55546C10.905 6.25883 10.5408 6.89736 9.9952 7.35655C10.7309 7.6892 11.3684 8.20581 11.8463 8.85655C11.9337 8.97694 11.9698 9.12705 11.9468 9.27402C11.9238 9.42099 11.8435 9.55286 11.7235 9.64077Z" fill="#71AFE8"/>
</g>
</svg>
