<svg width="24" height="24" viewBox="0 0 24 24" fill="none" xmlns="http://www.w3.org/2000/svg">
<path d="M19.2273 15.4697L17.8182 14.0792C18.4848 13.4661 19.0076 12.741 19.3864 11.9037C19.7652 11.0664 19.9545 10.1768 19.9545 9.23483C19.9545 8.29288 19.7652 7.41073 19.3864 6.58839C19.0076 5.76605 18.4848 5.04837 17.8182 4.43536L19.2273 3C20.0758 3.79244 20.75 4.72691 21.25 5.80343C21.75 6.87995 22 8.02375 22 9.23483C22 10.4459 21.75 11.5897 21.25 12.6662C20.75 13.7427 20.0758 14.6772 19.2273 15.4697ZM16.3182 12.5989L14.8636 11.1636C15.1364 10.9094 15.3561 10.6214 15.5227 10.2997C15.6894 9.97792 15.7727 9.62297 15.7727 9.23483C15.7727 8.84609 15.6894 8.49084 15.5227 8.16908C15.3561 7.84732 15.1364 7.55965 14.8636 7.30607L16.3182 5.87071C16.803 6.30431 17.1818 6.80908 17.4545 7.38501C17.7273 7.96095 17.8636 8.57755 17.8636 9.23483C17.8636 9.8927 17.7273 10.5096 17.4545 11.0855C17.1818 11.6615 16.803 12.1659 16.3182 12.5989ZM9.27273 12.8232C8.27273 12.8232 7.41667 12.4719 6.70455 11.7691C5.99242 11.0664 5.63636 10.2216 5.63636 9.23483C5.63636 8.24802 5.99242 7.40325 6.70455 6.70053C7.41667 5.9978 8.27273 5.64644 9.27273 5.64644C10.2727 5.64644 11.1288 5.9978 11.8409 6.70053C12.553 7.40325 12.9091 8.24802 12.9091 9.23483C12.9091 10.2216 12.553 11.0664 11.8409 11.7691C11.1288 12.4719 10.2727 12.8232 9.27273 12.8232ZM2 20V17.4881C2 16.9947 2.12879 16.5312 2.38636 16.0976C2.64394 15.664 3 15.3351 3.45455 15.1108C4.22727 14.7221 5.09848 14.3931 6.06818 14.124C7.03788 13.8549 8.10606 13.7203 9.27273 13.7203C10.4394 13.7203 11.5076 13.8549 12.4773 14.124C13.447 14.3931 14.3182 14.7221 15.0909 15.1108C15.5455 15.3351 15.9015 15.664 16.1591 16.0976C16.4167 16.5312 16.5455 16.9947 16.5455 17.4881V20H2ZM3.81818 18.2058H14.7273V17.4881C14.7273 17.3237 14.6855 17.1741 14.6018 17.0396C14.5182 16.905 14.4085 16.8004 14.2727 16.7256C13.7273 16.4565 13.0264 16.1873 12.17 15.9182C11.3136 15.6491 10.3479 15.5145 9.27273 15.5145C8.19697 15.5145 7.23091 15.6491 6.37455 15.9182C5.51818 16.1873 4.81758 16.4565 4.27273 16.7256C4.13636 16.8004 4.02636 16.905 3.94273 17.0396C3.85909 17.1741 3.81758 17.3237 3.81818 17.4881V18.2058ZM9.27273 11.029C9.77273 11.029 10.2009 10.8532 10.5573 10.5015C10.9136 10.1499 11.0915 9.72763 11.0909 9.23483C11.0909 8.74142 10.9127 8.31889 10.5564 7.96723C10.2 7.61557 9.77212 7.44003 9.27273 7.44063C8.77273 7.44063 8.34455 7.61646 7.98818 7.96813C7.63182 8.31979 7.45394 8.74202 7.45455 9.23483C7.45455 9.72823 7.63273 10.1508 7.98909 10.5024C8.34545 10.8541 8.77333 11.0296 9.27273 11.029Z" fill="#9285EE"/>
</svg>
