<svg width="24" height="24" viewBox="0 0 24 24" fill="none" xmlns="http://www.w3.org/2000/svg">
<path fill-rule="evenodd" clip-rule="evenodd" d="M20.3127 10.8427H17.8052C16.4797 10.8427 15.4959 11.8284 15.4959 12.937C15.4959 14.0456 16.4797 15.0313 17.8042 15.0313H20.3342C20.5259 15.0192 20.6087 14.8899 20.6153 14.8117V11.0624C20.6087 10.9842 20.5259 10.8548 20.3342 10.8437H20.3118L20.3127 10.8427ZM20.2439 9.44653C20.3053 9.44653 20.3649 9.44653 20.4207 9.45026C21.2305 9.49959 21.9482 10.1111 22.0087 10.9656C22.0124 11.0214 22.0124 11.0819 22.0124 11.1378V14.7363C22.0124 14.7921 22.0124 14.8526 22.0087 14.9085C21.9482 15.7629 21.2305 16.3745 20.4198 16.4247C20.3649 16.4275 20.3053 16.4275 20.2429 16.4275H17.8061C15.8095 16.4275 14.1006 14.9122 14.1006 12.937C14.1006 10.9619 15.8095 9.44653 17.8052 9.44653H20.2439Z" fill="#9285EE"/>
<path d="M18.5218 12.9369C18.5218 13.1838 18.4237 13.4205 18.2491 13.5951C18.0746 13.7696 17.8378 13.8677 17.591 13.8677C17.3441 13.8677 17.1073 13.7696 16.9328 13.5951C16.7582 13.4205 16.6602 13.1838 16.6602 12.9369C16.6602 12.69 16.7582 12.4533 16.9328 12.2787C17.1073 12.1042 17.3441 12.0061 17.591 12.0061C17.8378 12.0061 18.0746 12.1042 18.2491 12.2787C18.4237 12.4533 18.5218 12.69 18.5218 12.9369Z" fill="#9285EE"/>
<path fill-rule="evenodd" clip-rule="evenodd" d="M20.2437 9.44651C20.5107 9.43641 20.7765 9.48735 21.0209 9.59544C20.9213 8.10057 20.6467 6.94824 19.7866 6.08725C19.0895 5.39101 18.2062 5.08199 17.1153 4.93492L17.0762 4.93027C17.0664 4.92288 17.0565 4.91574 17.0464 4.90886L13.5689 2.60327C12.9657 2.20961 12.261 2 11.5407 2C10.8204 2 10.1157 2.20961 9.51248 2.60327L6.03595 4.90886C6.02552 4.91573 6.01528 4.92287 6.00523 4.93027L5.96614 4.93492C4.87524 5.08199 3.99191 5.39101 3.29474 6.08725C2.5985 6.78442 2.28948 7.66775 2.14241 8.75865C2 9.81976 2 11.1741 2 12.8849V12.9891C2 14.6999 2 16.0552 2.14241 17.1154C2.28948 18.2063 2.5985 19.0896 3.29474 19.7868C3.99191 20.483 4.87524 20.792 5.96614 20.9391C7.02725 21.0815 8.38156 21.0815 10.0924 21.0815H12.989C14.6998 21.0815 16.0551 21.0815 17.1153 20.9391C18.2062 20.792 19.0895 20.483 19.7866 19.7868C20.6467 18.9258 20.9213 17.7734 21.0209 16.2776C20.8329 16.3614 20.63 16.4117 20.4196 16.4247C20.3647 16.4275 20.3051 16.4275 20.2427 16.4275H19.6089C19.5028 17.6757 19.2635 18.3356 18.7991 18.7992C18.4053 19.1929 17.8655 19.4293 16.9291 19.555C15.9732 19.6834 14.7119 19.6853 12.9369 19.6853H10.1445C8.36946 19.6853 7.10916 19.6834 6.15137 19.555C5.21591 19.4293 4.67605 19.1929 4.28232 18.7992C3.88859 18.4055 3.65217 17.8656 3.52651 16.9292C3.39806 15.9733 3.3962 14.712 3.3962 12.937C3.3962 11.162 3.39806 9.90167 3.52651 8.94388C3.65217 8.00842 3.88859 7.46856 4.28232 7.07483C4.67605 6.6811 5.21591 6.44468 6.1523 6.31902C7.10916 6.19057 8.36946 6.18871 10.1445 6.18871H12.9369C14.7119 6.18871 15.9732 6.19057 16.93 6.31902C17.8655 6.44468 18.4053 6.6811 18.7991 7.07483C19.2635 7.53837 19.5028 8.19831 19.6089 9.44651H20.2437ZM10.0924 4.79251H12.989C13.4702 4.79251 13.9226 4.79251 14.348 4.7953L12.7973 3.76677C12.0526 3.27344 11.0288 3.27344 10.2841 3.76677L8.73247 4.7953C9.15878 4.79251 9.61115 4.79251 10.0914 4.79251H10.0924Z" fill="#9285EE"/>
<path d="M6.42124 8.51562C6.2361 8.51562 6.05853 8.58917 5.92761 8.72009C5.79669 8.85101 5.72314 9.02858 5.72314 9.21372C5.72314 9.39887 5.79669 9.57644 5.92761 9.70736C6.05853 9.83827 6.2361 9.91182 6.42124 9.91182H10.1444C10.3296 9.91182 10.5072 9.83827 10.6381 9.70736C10.769 9.57644 10.8425 9.39887 10.8425 9.21372C10.8425 9.02858 10.769 8.85101 10.6381 8.72009C10.5072 8.58917 10.3296 8.51562 10.1444 8.51562H6.42124Z" fill="#9285EE"/>
<path d="M18.5218 12.9369C18.5218 13.1838 18.4237 13.4205 18.2491 13.5951C18.0746 13.7696 17.8378 13.8677 17.591 13.8677C17.3441 13.8677 17.1073 13.7696 16.9328 13.5951C16.7582 13.4205 16.6602 13.1838 16.6602 12.9369C16.6602 12.69 16.7582 12.4533 16.9328 12.2787C17.1073 12.1042 17.3441 12.0061 17.591 12.0061C17.8378 12.0061 18.0746 12.1042 18.2491 12.2787C18.4237 12.4533 18.5218 12.69 18.5218 12.9369Z" fill="#9285EE"/>
</svg>
