<svg width="16" height="16" viewBox="0 0 16 16" fill="none" xmlns="http://www.w3.org/2000/svg">
<path d="M11.6 3.80598L11.606 3.79938M13.4 3.19998V12.7999C13.4 13.1181 13.2735 13.4233 13.0485 13.6484C12.8234 13.8734 12.5182 13.9998 12.2 13.9998H3.80008C3.48183 13.9998 3.17661 13.8734 2.95156 13.6484C2.72652 13.4233 2.6001 13.1181 2.6001 12.7999V3.19998C2.6001 2.88173 2.72652 2.57651 2.95156 2.35147C3.17661 2.12643 3.48183 2 3.80008 2H12.2C12.5182 2 12.8234 2.12643 13.0485 2.35147C13.2735 2.57651 13.4 2.88173 13.4 3.19998Z" stroke="#B7B6E0" stroke-linecap="round" stroke-linejoin="round"/>
<path d="M7.99985 12.1999C8.95462 12.1999 9.87028 11.8206 10.5454 11.1455C11.2205 10.4704 11.5998 9.55472 11.5998 8.59995C11.5998 7.64518 11.2205 6.72952 10.5454 6.0544C9.87028 5.37928 8.95462 5 7.99985 5C7.04509 5 6.12943 5.37928 5.4543 6.0544C4.77918 6.72952 4.3999 7.64518 4.3999 8.59995C4.3999 9.55472 4.77918 10.4704 5.4543 11.1455C6.12943 11.8206 7.04509 12.1999 7.99985 12.1999Z" stroke="#B7B6E0" stroke-linecap="round" stroke-linejoin="round"/>
<path d="M8.00017 10.3998C7.52279 10.3998 7.06496 10.2102 6.7274 9.87263C6.38983 9.53507 6.2002 9.07724 6.2002 8.59985" stroke="#B7B6E0" stroke-linecap="round" stroke-linejoin="round"/>
</svg>
