<svg width="16" height="16" viewBox="0 0 16 16" fill="none" xmlns="http://www.w3.org/2000/svg">
<path d="M3.33333 5.33327H9C9.30962 5.3392 9.61477 5.25874 9.88122 5.10093C10.1477 4.94312 10.3649 4.71419 10.5085 4.43983C10.6521 4.16546 10.7164 3.85651 10.6943 3.54763C10.6721 3.23874 10.5643 2.94214 10.383 2.69109C10.2017 2.44004 9.95403 2.24448 9.66778 2.12632C9.38153 2.00817 9.06802 1.9721 8.76241 2.02217C8.45681 2.07224 8.1712 2.20647 7.93762 2.40979C7.70404 2.61311 7.53172 2.87749 7.44 3.17327M2 7.99994H12.3333C12.643 7.99402 12.9481 8.07447 13.2146 8.23228C13.481 8.3901 13.6982 8.61902 13.8418 8.89339C13.9854 9.16775 14.0498 9.4767 14.0276 9.78559C14.0054 10.0945 13.8977 10.3911 13.7164 10.6421C13.535 10.8932 13.2874 11.0887 13.0011 11.2069C12.7149 11.325 12.4014 11.3611 12.0957 11.311C11.7901 11.261 11.5045 11.1267 11.271 10.9234C11.0374 10.7201 10.8651 10.4557 10.7733 10.1599M2.66667 10.6666H6.33333C6.64295 10.6607 6.9481 10.7411 7.21455 10.8989C7.481 11.0568 7.69822 11.2857 7.84183 11.5601C7.98544 11.8344 8.04978 12.1434 8.02761 12.4523C8.00545 12.7611 7.89766 13.0577 7.71635 13.3088C7.53504 13.5598 7.28736 13.7554 7.00111 13.8736C6.71486 13.9917 6.40135 14.0278 6.09575 13.9777C5.79014 13.9276 5.50453 13.7934 5.27095 13.5901C5.03737 13.3868 4.86505 13.1224 4.77333 12.8266" stroke="#B7B6E0" stroke-linecap="round" stroke-linejoin="round"/>
</svg>
