<svg width="24" height="24" viewBox="0 0 24 24" fill="none" xmlns="http://www.w3.org/2000/svg">
<path d="M4 21C3.45 21 2.979 20.804 2.587 20.412C2.195 20.02 1.99934 19.5493 2 19V8C2 7.45 2.196 6.979 2.588 6.587C2.98 6.195 3.45067 5.99934 4 6H8V4C8 3.45 8.196 2.979 8.588 2.587C8.98 2.195 9.45067 1.99934 10 2H14C14.55 2 15.021 2.196 15.413 2.588C15.805 2.98 16.0007 3.45067 16 4V6H20C20.55 6 21.021 6.196 21.413 6.588C21.805 6.98 22.0007 7.45067 22 8V12.275C21.7 12.0583 21.3833 11.8707 21.05 11.712C20.7167 11.5533 20.3667 11.416 20 11.3V8H4V19H11.075C11.125 19.35 11.2 19.6917 11.3 20.025C11.4 20.3583 11.525 20.6833 11.675 21H4ZM10 6H14V4H10V6ZM18 23C16.6167 23 15.4373 22.5123 14.462 21.537C13.4867 20.5617 12.9993 19.3827 13 18C13 16.6167 13.4877 15.4373 14.463 14.462C15.4383 13.4867 16.6173 12.9993 18 13C19.3833 13 20.5627 13.4877 21.538 14.463C22.5133 15.4383 23.0007 16.6173 23 18C23 19.3833 22.5123 20.5627 21.537 21.538C20.5617 22.5133 19.3827 23.0007 18 23ZM18 21C18.1333 21 18.25 20.95 18.35 20.85C18.45 20.75 18.5 20.6333 18.5 20.5C18.5 20.3667 18.45 20.25 18.35 20.15C18.25 20.05 18.1333 20 18 20C17.8667 20 17.75 20.05 17.65 20.15C17.55 20.25 17.5 20.3667 17.5 20.5C17.5 20.6333 17.55 20.75 17.65 20.85C17.75 20.95 17.8667 21 18 21ZM18 19C18.1333 19 18.25 18.95 18.35 18.85C18.45 18.75 18.5 18.6333 18.5 18.5V15.5C18.5 15.3667 18.45 15.25 18.35 15.15C18.25 15.05 18.1333 15 18 15C17.8667 15 17.75 15.05 17.65 15.15C17.55 15.25 17.5 15.3667 17.5 15.5V18.5C17.5 18.6333 17.55 18.75 17.65 18.85C17.75 18.95 17.8667 19 18 19Z" fill="#9285EE"/>
</svg>
